<?xml version="1.0" encoding="utf-8"?>
<!-- Generator: Adobe Illustrator 16.0.0, SVG Export Plug-In . SVG Version: 6.00 Build 0)  -->
<!DOCTYPE svg PUBLIC "-//W3C//DTD SVG 1.1//EN" "http://www.w3.org/Graphics/SVG/1.1/DTD/svg11.dtd">
<svg version="1.1" id="圖層_1" xmlns="http://www.w3.org/2000/svg" xmlns:xlink="http://www.w3.org/1999/xlink" x="0px" y="0px"
	 width="267.542px" height="124.5px" viewBox="0 0 267.542 124.5" enable-background="new 0 0 267.542 124.5" xml:space="preserve">
<rect fill="#D5132B" width="267.542" height="124.5"/>
<g>
	<path fill="#FFFFFF" d="M26.356,27.099c0.507,0,0.762,1.153,0.762,3.457v0.645l14.121-1.348c5.664-0.546,11.113-1.172,16.348-1.875
		c1.679-0.312,2.89-0.976,3.633-1.992c1.132-1.445,1.934-2.168,2.402-2.168c0.469,0.079,1.23,0.684,2.285,1.816
		c1.172,1.133,1.758,1.992,1.758,2.578c0,0.352-0.352,0.703-1.055,1.055c-1.406,1.172-3.594,3.536-6.563,7.09
		c-0.391,0.391-0.684,0.586-0.879,0.586c-0.313,0-0.469-0.234-0.469-0.703c0-0.117,0.117-0.429,0.352-0.938
		c0.703-1.601,1.289-3.183,1.758-4.746l-34.102,3.691c-0.391,1.523-0.996,2.754-1.816,3.691c-0.82,1.055-1.563,1.582-2.227,1.582
		c-0.586,0-1.153-0.625-1.699-1.875c-0.391-1.172-0.606-1.972-0.645-2.402c0-0.234,0.214-0.449,0.645-0.645
		c2.617-1.445,4.257-3.652,4.922-6.621C25.888,27.392,26.043,27.099,26.356,27.099z M32.978,41.103c0.507,0,1.132,0.703,1.875,2.109
		c0.078,0.117,0.136,0.234,0.176,0.352l13.359-1.465c1.015-0.156,1.835-0.605,2.461-1.348c0.82-0.976,1.425-1.465,1.816-1.465
		c0.39,0,0.996,0.391,1.816,1.172c1.093,0.977,1.641,1.602,1.641,1.875c0,0.313-0.333,0.86-0.996,1.641
		c-0.625,0.665-0.996,1.446-1.113,2.344l-0.938,3.34c0.195,0.079,0.371,0.176,0.527,0.293c0.781,0.586,1.172,1.016,1.172,1.289
		c0,0.157-0.508,0.274-1.523,0.352c-0.625,0.04-1.25,0.079-1.875,0.117c0.234,0.234,0.469,0.489,0.703,0.762
		c0.82,1.094,1.23,1.992,1.23,2.695c0,0.157-0.117,0.352-0.352,0.586c-1.055,1.093-2.442,2.402-4.16,3.926
		c6.64-0.469,10.781-0.938,12.422-1.406c0.781-0.196,1.445-0.293,1.992-0.293c0.352,0,1.191,0.449,2.52,1.348
		c1.289,0.898,1.934,1.465,1.934,1.699c0,0.352-0.254,0.527-0.762,0.527c-6.524,0.273-15.04,0.742-25.547,1.406
		c-9.18,0.625-14.161,1.035-14.941,1.23c-0.625,0.117-1.094,0.176-1.406,0.176c-0.743,0-1.699-0.45-2.871-1.348
		c-0.782-0.469-1.172-0.879-1.172-1.23c0-0.665,0.41-0.996,1.23-0.996c2.617,0,7.988-0.157,16.113-0.469
		c-0.469-1.563-1.153-3.262-2.051-5.098c-0.079-0.195-0.137-0.332-0.176-0.41c-0.117,0.234-0.293,0.352-0.527,0.352
		c-0.43,0-1.113-0.546-2.051-1.641c-0.508-0.82-0.762-1.503-0.762-2.051c0-0.273,0.097-0.664,0.293-1.172
		c0.234-0.429,0.352-1.445,0.352-3.047c0-1.289-0.117-2.617-0.352-3.984c-0.117-0.859-0.215-1.406-0.293-1.641
		C32.743,41.279,32.821,41.103,32.978,41.103z M55.712,15.791c0.703,0,1.484,0.333,2.344,0.996c0.898,0.899,1.348,1.504,1.348,1.816
		c0,0.352-0.157,0.527-0.469,0.527c-4.063,0.274-8.496,0.625-13.301,1.055v3.691c1.015-0.117,1.875-0.234,2.578-0.352
		c1.132-0.117,2.031-0.273,2.695-0.469c0.664-0.156,1.093-0.234,1.289-0.234c0.664,0,1.386,0.254,2.168,0.762
		c0.898,0.782,1.348,1.309,1.348,1.582c0,0.313-0.079,0.469-0.234,0.469c-3.711,0.313-7.813,0.723-12.305,1.23
		c-4.297,0.391-6.934,0.703-7.91,0.938c-0.391,0.117-0.703,0.176-0.938,0.176c-0.391,0-1.055-0.332-1.992-0.996
		c-0.86-0.625-1.289-1.074-1.289-1.348c0-0.312,0.156-0.469,0.469-0.469c3.437-0.195,5.801-0.371,7.09-0.527
		c1.328-0.117,2.578-0.234,3.75-0.352v-3.867c-5.469,0.43-8.829,0.782-10.078,1.055c-0.547,0.157-0.958,0.234-1.23,0.234
		c-0.391,0-1.172-0.39-2.344-1.172c-0.899-0.664-1.348-1.132-1.348-1.406c0-0.352,0.234-0.527,0.703-0.527
		c4.609-0.234,7.773-0.449,9.492-0.645c1.679-0.156,3.261-0.312,4.746-0.469c-0.117-1.289-0.352-2.656-0.703-4.102
		c-0.43-1.328-0.665-2.324-0.703-2.988c0-0.312,0.234-0.469,0.703-0.469c0.625,0,1.523,0.469,2.695,1.406
		c1.484,1.133,2.227,2.09,2.227,2.871c0,0.391-0.157,0.958-0.469,1.699c-0.117,0.43-0.196,0.84-0.234,1.23
		c1.796-0.156,3.32-0.312,4.57-0.469c1.523-0.117,2.734-0.312,3.633-0.586C54.911,15.889,55.478,15.791,55.712,15.791z
		 M53.134,34.599c0.664,0,1.386,0.254,2.168,0.762c0.859,0.743,1.289,1.27,1.289,1.582c0,0.313-0.079,0.469-0.234,0.469
		c-4.18,0.274-8.848,0.645-14.004,1.113c-4.922,0.43-7.95,0.762-9.082,0.996c-0.43,0.157-0.762,0.234-0.996,0.234
		c-0.43,0-1.113-0.352-2.051-1.055c-0.86-0.625-1.289-1.055-1.289-1.289c0-0.312,0.156-0.469,0.469-0.469
		c3.984-0.234,6.699-0.429,8.145-0.586c1.875-0.156,3.613-0.312,5.215-0.469c2.382-0.273,4.316-0.488,5.801-0.645
		c1.289-0.117,2.324-0.253,3.105-0.41C52.45,34.678,52.938,34.599,53.134,34.599z M36.083,50.361
		c6.914-0.352,11.621-0.722,14.121-1.113l0.645-4.863L35.79,45.849c0.039,0.391,0.078,0.762,0.117,1.113
		C35.985,48.251,36.043,49.385,36.083,50.361z M40.36,60.263c0.742-0.04,1.465-0.079,2.168-0.117
		c1.406-0.079,2.734-0.176,3.984-0.293c0.039-0.157,0.097-0.313,0.176-0.469c1.172-2.54,1.934-5.039,2.285-7.5
		c-4.532,0.274-8.789,0.547-12.773,0.82v1.348c0.195,0,0.429,0.059,0.703,0.176c1.25,0.547,2.48,1.172,3.691,1.875
		c0.352,0.312,0.527,0.566,0.527,0.762c0,1.093-0.157,2.031-0.469,2.813C40.575,59.872,40.478,60.067,40.36,60.263z"/>
	<path fill="#FFFFFF" d="M86.356,27.099c0.507,0,0.762,1.153,0.762,3.457v0.645l14.121-1.348c5.664-0.546,11.113-1.172,16.348-1.875
		c1.679-0.312,2.89-0.976,3.633-1.992c1.132-1.445,1.934-2.168,2.402-2.168c0.469,0.079,1.23,0.684,2.285,1.816
		c1.172,1.133,1.758,1.992,1.758,2.578c0,0.352-0.352,0.703-1.055,1.055c-1.406,1.172-3.594,3.536-6.563,7.09
		c-0.391,0.391-0.684,0.586-0.879,0.586c-0.313,0-0.469-0.234-0.469-0.703c0-0.117,0.117-0.429,0.352-0.938
		c0.703-1.601,1.289-3.183,1.758-4.746l-34.102,3.691c-0.391,1.523-0.996,2.754-1.816,3.691c-0.82,1.055-1.563,1.582-2.227,1.582
		c-0.586,0-1.153-0.625-1.699-1.875c-0.391-1.172-0.606-1.972-0.645-2.402c0-0.234,0.214-0.449,0.645-0.645
		c2.617-1.445,4.257-3.652,4.922-6.621C85.888,27.392,86.043,27.099,86.356,27.099z M92.978,41.103c0.507,0,1.132,0.703,1.875,2.109
		c0.078,0.117,0.136,0.234,0.176,0.352l13.359-1.465c1.015-0.156,1.835-0.605,2.461-1.348c0.82-0.976,1.425-1.465,1.816-1.465
		c0.39,0,0.996,0.391,1.816,1.172c1.093,0.977,1.641,1.602,1.641,1.875c0,0.313-0.333,0.86-0.996,1.641
		c-0.625,0.665-0.996,1.446-1.113,2.344l-0.938,3.34c0.195,0.079,0.371,0.176,0.527,0.293c0.781,0.586,1.172,1.016,1.172,1.289
		c0,0.157-0.508,0.274-1.523,0.352c-0.625,0.04-1.25,0.079-1.875,0.117c0.234,0.234,0.469,0.489,0.703,0.762
		c0.82,1.094,1.23,1.992,1.23,2.695c0,0.157-0.117,0.352-0.352,0.586c-1.055,1.093-2.442,2.402-4.16,3.926
		c6.64-0.469,10.781-0.938,12.422-1.406c0.781-0.196,1.445-0.293,1.992-0.293c0.352,0,1.191,0.449,2.52,1.348
		c1.289,0.898,1.934,1.465,1.934,1.699c0,0.352-0.254,0.527-0.762,0.527c-6.524,0.273-15.04,0.742-25.547,1.406
		c-9.18,0.625-14.161,1.035-14.941,1.23c-0.625,0.117-1.094,0.176-1.406,0.176c-0.743,0-1.699-0.45-2.871-1.348
		c-0.782-0.469-1.172-0.879-1.172-1.23c0-0.665,0.41-0.996,1.23-0.996c2.617,0,7.988-0.157,16.113-0.469
		c-0.469-1.563-1.153-3.262-2.051-5.098c-0.079-0.195-0.137-0.332-0.176-0.41c-0.117,0.234-0.293,0.352-0.527,0.352
		c-0.43,0-1.113-0.546-2.051-1.641c-0.508-0.82-0.762-1.503-0.762-2.051c0-0.273,0.097-0.664,0.293-1.172
		c0.234-0.429,0.352-1.445,0.352-3.047c0-1.289-0.117-2.617-0.352-3.984c-0.117-0.859-0.215-1.406-0.293-1.641
		C92.743,41.279,92.821,41.103,92.978,41.103z M115.712,15.791c0.703,0,1.484,0.333,2.344,0.996
		c0.898,0.899,1.348,1.504,1.348,1.816c0,0.352-0.157,0.527-0.469,0.527c-4.063,0.274-8.496,0.625-13.301,1.055v3.691
		c1.015-0.117,1.875-0.234,2.578-0.352c1.132-0.117,2.031-0.273,2.695-0.469c0.664-0.156,1.093-0.234,1.289-0.234
		c0.664,0,1.386,0.254,2.168,0.762c0.898,0.782,1.348,1.309,1.348,1.582c0,0.313-0.079,0.469-0.234,0.469
		c-3.711,0.313-7.813,0.723-12.305,1.23c-4.297,0.391-6.934,0.703-7.91,0.938c-0.391,0.117-0.703,0.176-0.938,0.176
		c-0.391,0-1.055-0.332-1.992-0.996c-0.86-0.625-1.289-1.074-1.289-1.348c0-0.312,0.156-0.469,0.469-0.469
		c3.437-0.195,5.801-0.371,7.09-0.527c1.328-0.117,2.578-0.234,3.75-0.352v-3.867c-5.469,0.43-8.829,0.782-10.078,1.055
		c-0.547,0.157-0.958,0.234-1.23,0.234c-0.391,0-1.172-0.39-2.344-1.172c-0.899-0.664-1.348-1.132-1.348-1.406
		c0-0.352,0.234-0.527,0.703-0.527c4.609-0.234,7.773-0.449,9.492-0.645c1.679-0.156,3.261-0.312,4.746-0.469
		c-0.117-1.289-0.352-2.656-0.703-4.102c-0.43-1.328-0.665-2.324-0.703-2.988c0-0.312,0.234-0.469,0.703-0.469
		c0.625,0,1.523,0.469,2.695,1.406c1.484,1.133,2.227,2.09,2.227,2.871c0,0.391-0.157,0.958-0.469,1.699
		c-0.117,0.43-0.196,0.84-0.234,1.23c1.796-0.156,3.32-0.312,4.57-0.469c1.523-0.117,2.734-0.312,3.633-0.586
		C114.911,15.889,115.478,15.791,115.712,15.791z M113.134,34.599c0.664,0,1.386,0.254,2.168,0.762
		c0.859,0.743,1.289,1.27,1.289,1.582c0,0.313-0.079,0.469-0.234,0.469c-4.18,0.274-8.848,0.645-14.004,1.113
		c-4.922,0.43-7.95,0.762-9.082,0.996c-0.43,0.157-0.762,0.234-0.996,0.234c-0.43,0-1.113-0.352-2.051-1.055
		c-0.86-0.625-1.289-1.055-1.289-1.289c0-0.312,0.156-0.469,0.469-0.469c3.984-0.234,6.699-0.429,8.145-0.586
		c1.875-0.156,3.613-0.312,5.215-0.469c2.382-0.273,4.316-0.488,5.801-0.645c1.289-0.117,2.324-0.253,3.105-0.41
		C112.45,34.678,112.938,34.599,113.134,34.599z M96.083,50.361c6.914-0.352,11.621-0.722,14.121-1.113l0.645-4.863L95.79,45.849
		c0.039,0.391,0.078,0.762,0.117,1.113C95.985,48.251,96.043,49.385,96.083,50.361z M100.36,60.263
		c0.742-0.04,1.465-0.079,2.168-0.117c1.406-0.079,2.734-0.176,3.984-0.293c0.039-0.157,0.097-0.313,0.176-0.469
		c1.172-2.54,1.934-5.039,2.285-7.5c-4.532,0.274-8.789,0.547-12.773,0.82v1.348c0.195,0,0.429,0.059,0.703,0.176
		c1.25,0.547,2.48,1.172,3.691,1.875c0.352,0.312,0.527,0.566,0.527,0.762c0,1.093-0.157,2.031-0.469,2.813
		C100.575,59.872,100.478,60.067,100.36,60.263z"/>
	<path fill="#FFFFFF" d="M155.556,18.134c0.703,0,1.484,0.333,2.344,0.996c0.898,0.899,1.348,1.504,1.348,1.816
		c0,0.352-0.157,0.527-0.469,0.527c-2.305,0.234-4.805,0.508-7.5,0.82v9.258c0.195-0.039,0.371-0.078,0.527-0.117
		c0.742-0.078,1.328-0.214,1.758-0.41c0.39-0.156,0.645-0.234,0.762-0.234c0.703,0,1.445,0.274,2.227,0.82
		c0.898,0.743,1.348,1.25,1.348,1.523c0,0.313-0.079,0.469-0.234,0.469c-1.954,0.274-4.083,0.567-6.387,0.879V45.38l6.797-2.227
		c0.469-0.117,0.781-0.176,0.938-0.176c0.507,0,0.762,0.079,0.762,0.234c0,0.274-0.196,0.547-0.586,0.82l-11.602,6.152
		c-1.446,0.86-2.578,1.523-3.398,1.992c-0.43,0.274-0.782,0.41-1.055,0.41c-0.508,0-1.348-0.39-2.52-1.172
		c-1.133-0.898-1.719-1.582-1.758-2.051c0-0.312,0.273-0.566,0.82-0.762c3.164-0.625,5.234-1.093,6.211-1.406l2.168-0.703V34.951
		c-1.797,0.234-2.95,0.43-3.457,0.586c-0.234,0.117-0.43,0.176-0.586,0.176c-0.391,0-1.075-0.332-2.051-0.996
		c-0.782-0.625-1.172-1.074-1.172-1.348c0-0.312,0.136-0.469,0.41-0.469c2.187-0.195,3.71-0.352,4.57-0.469
		c0.781-0.117,1.542-0.234,2.285-0.352v-9.434c-2.422,0.313-3.926,0.547-4.512,0.703c-0.274,0.117-0.489,0.176-0.645,0.176
		c-0.43,0-1.211-0.371-2.344-1.113c-0.977-0.664-1.465-1.152-1.465-1.465c0-0.312,0.253-0.469,0.762-0.469
		c2.578-0.195,4.375-0.371,5.391-0.527c1.172-0.156,2.304-0.312,3.398-0.469c1.601-0.234,2.89-0.429,3.867-0.586
		c0.859-0.117,1.562-0.293,2.109-0.527C155.087,18.213,155.399,18.134,155.556,18.134z M168.212,9.931
		c0.429,0,1.308,0.899,2.637,2.695c1.21,1.523,1.816,2.754,1.816,3.691c0,0.547-0.157,0.918-0.469,1.113
		c-0.743,0.782-1.641,2.402-2.695,4.863c-0.625,1.446-1.23,2.754-1.816,3.926c1.601-0.312,3.007-0.586,4.219-0.82
		c1.132-0.195,2.227-0.722,3.281-1.582c1.21-0.938,2.011-1.406,2.402-1.406c0.352,0,0.957,0.703,1.816,2.109
		c0.507,0.703,0.762,1.23,0.762,1.582c0,0.391-0.274,0.782-0.82,1.172c-0.547,0.391-0.977,0.958-1.289,1.699
		c-1.641,4.141-3.281,7.872-4.922,11.191c5.234,10.157,8.593,16.015,10.078,17.578c1.445,1.406,3.633,2.421,6.563,3.047
		c0.898,0.273,1.348,0.605,1.348,0.996c0,0.507-0.372,0.879-1.113,1.113c-1.172,0.312-2.657,0.605-4.453,0.879
		c-1.133,0.234-1.934,0.352-2.402,0.352c-0.547,0-0.958-0.254-1.23-0.762L171.61,43.154c-0.43,0.82-0.86,1.602-1.289,2.344
		c-1.954,3.125-4.16,5.958-6.621,8.496c-1.485,1.484-3.418,3.105-5.801,4.863c-2.695,1.953-5.079,3.437-7.148,4.453
		c-1.602,0.859-2.5,1.289-2.695,1.289c-0.313,0-0.469-0.157-0.469-0.469c0-0.117,0.176-0.333,0.527-0.645
		c5.078-3.164,8.808-6.035,11.191-8.613c3.633-3.554,6.64-7.714,9.023-12.48c1.172-2.031,2.382-4.688,3.633-7.969
		c1.015-2.539,1.777-4.707,2.285-6.504c-0.899,0.196-1.875,0.41-2.93,0.645c-1.289,0.234-2.247,0.527-2.871,0.879
		c-0.313,0.157-0.547,0.234-0.703,0.234c-0.508,0-1.055-0.195-1.641-0.586c-0.743,1.211-1.465,2.305-2.168,3.281
		c-1.875,2.813-4.122,5.528-6.738,8.145c-0.391,0.391-0.645,0.586-0.762,0.586c-0.313,0-0.469-0.156-0.469-0.469
		c0-0.078,0.117-0.312,0.352-0.703c1.953-2.968,3.75-6.132,5.391-9.492c2.187-4.492,3.789-8.593,4.805-12.305
		c0.82-2.617,1.23-5.117,1.23-7.5C167.743,10.166,167.899,9.931,168.212,9.931z"/>
	<path fill="#FFFFFF" d="M237.118,18.134c0.741,0,1.523,0.333,2.344,0.996c0.898,0.899,1.348,1.504,1.348,1.816
		c0,0.352-0.138,0.527-0.41,0.527c-2.892,0.196-5.938,0.41-9.141,0.645l-0.938,7.383c5.117-0.586,8.379-1.132,9.785-1.641
		c0.703-0.234,1.327-0.352,1.875-0.352c0.43,0,1.386,0.567,2.871,1.699c1.367,1.094,2.051,1.797,2.051,2.109
		c0,0.313-0.234,0.469-0.703,0.469c-4.375,0.196-9.609,0.508-15.703,0.938c1.133,1.094,2.363,2.285,3.691,3.574
		c3.477,3.086,6.425,5.293,8.848,6.621c2.188,1.172,4.805,1.973,7.852,2.402c0.313,0.117,0.469,0.352,0.469,0.703
		c0,0.196-0.215,0.372-0.645,0.527c-1.485,0.234-3.613,0.567-6.387,0.996c-1.68,0.234-2.774,0.352-3.281,0.352
		c-0.313,0-0.606-0.195-0.879-0.586c-1.875-2.227-4.239-4.902-7.09-8.027c-1.797-1.992-3.633-4.102-5.508-6.328
		c-2.344,0.196-4.746,0.391-7.207,0.586c-0.703,0.04-1.31,0.098-1.816,0.176c0.234,0.469,0.469,0.996,0.703,1.582
		c0.352,0.977,0.527,1.739,0.527,2.285c0,0.313-0.313,0.645-0.938,0.996c-1.251,0.82-2.461,1.758-3.633,2.813
		c0.117,0.196,0.214,0.352,0.293,0.469l9.902-1.699c0.938-0.156,1.737-0.566,2.402-1.23c0.781-1.015,1.386-1.523,1.816-1.523
		c0.43,0,1.055,0.391,1.875,1.172c1.093,0.977,1.641,1.582,1.641,1.816c0,0.352-0.352,0.918-1.055,1.699
		c-0.625,0.665-0.996,1.446-1.113,2.344l-0.82,4.688c0.234,0.117,0.448,0.254,0.645,0.41c0.741,0.547,1.113,0.938,1.113,1.172
		c0,0.196-0.391,0.372-1.172,0.527c-4.961,0.469-9.571,0.918-13.828,1.348v2.285c0,2.734,0.41,4.199,1.23,4.395
		c0.624,0.507,1.543,0.8,2.754,0.879c1.836,0.078,4.784,0.136,8.848,0.176c2.733,0,5.117-0.196,7.148-0.586
		c0.82-0.157,1.367-0.665,1.641-1.523c0.234-0.86,0.527-2.949,0.879-6.27c0-0.312,0.097-0.469,0.293-0.469
		c0.313,0,0.469,0.157,0.469,0.469c0.741,2.5,1.66,4.941,2.754,7.324c0.313,0.507,0.469,0.938,0.469,1.289
		c0,0.898-0.527,1.542-1.582,1.934c-2.93,0.586-7.129,0.879-12.598,0.879c-4.649,0-7.949-0.059-9.902-0.176
		c-1.68-0.196-2.93-0.586-3.75-1.172c-1.134-0.625-1.699-2.402-1.699-5.332v-9.434c0-0.859-0.039-2.168-0.117-3.926
		c-0.039-0.234-0.079-0.469-0.117-0.703c-2.423,2.032-5.02,3.946-7.793,5.742c-2.695,1.68-5.586,3.164-8.672,4.453
		c-0.234,0.117-0.45,0.196-0.645,0.234c-0.313,0-0.469-0.156-0.469-0.469c0-0.039,0.078-0.136,0.234-0.293
		c5.429-3.476,9.727-6.757,12.891-9.844c3.008-2.851,5.234-5.684,6.68-8.496c-6.407,0.547-9.923,0.899-10.547,1.055
		c-0.703,0.157-1.211,0.234-1.523,0.234c-0.743,0-1.739-0.488-2.988-1.465c-0.782-0.625-1.172-1.132-1.172-1.523
		c0-0.625,0.449-0.938,1.348-0.938c2.617,0,7.734-0.214,15.352-0.645c-0.234-2.5-0.469-4.902-0.703-7.207
		c-2.188,0.234-3.672,0.41-4.453,0.527c-0.508,0.196-0.918,0.293-1.23,0.293c-0.469,0-1.251-0.39-2.344-1.172
		c-0.977-0.664-1.465-1.132-1.465-1.406c0-0.312,0.234-0.469,0.703-0.469c3.75-0.234,6.582-0.429,8.496-0.586
		c-0.196-1.953-0.391-3.847-0.586-5.684c-0.156-0.703-0.391-1.641-0.703-2.813l-0.41-1.406c0-0.234,0.137-0.352,0.41-0.352
		c0.234,0,1.25,0.703,3.047,2.109c1.444,1.211,2.168,1.973,2.168,2.285c0,0.274-0.079,0.606-0.234,0.996
		c-0.156,0.547-0.234,0.958-0.234,1.23c0.038,1.055,0.078,2.168,0.117,3.34c1.758-0.156,3.398-0.312,4.922-0.469
		c1.679-0.156,3.164-0.312,4.453-0.469l0.352-3.867c-0.039-1.015-0.215-2.109-0.527-3.281c-0.391-1.132-0.586-1.914-0.586-2.344
		c0-0.273,0.155-0.41,0.469-0.41c0.39,0,1.327,0.625,2.813,1.875c1.679,1.211,2.52,2.071,2.52,2.578
		c0,0.469-0.117,0.958-0.352,1.465c-0.508,0.782-0.938,1.934-1.289,3.457v0.117c1.484-0.156,2.695-0.352,3.633-0.586
		C236.239,18.232,236.845,18.134,237.118,18.134z M216.552,44.091c0.195,0.625,0.313,1.27,0.352,1.934v4.277
		c4.922-0.429,8.398-0.879,10.43-1.348l0.586-6.445L216.552,44.091z M219.188,30.498c0.781-0.039,1.484-0.078,2.109-0.117
		c2.265-0.195,4.297-0.39,6.094-0.586l0.645-7.383c-1.758,0.157-3.555,0.313-5.391,0.469c-1.328,0.117-2.54,0.215-3.633,0.293
		C219.091,25.596,219.149,28.037,219.188,30.498z"/>
</g>
<g>
	<path fill="#FFFFFF" d="M33.722,75.444h-3.008v0.759h2.514v1.364c-1.961,2.181-4.729,3.691-8.301,4.532l-0.9-1.507
		c1.193-0.253,2.258-0.561,3.195-0.923c-0.49-0.403-0.955-0.718-1.395-0.943c-0.271,0.287-0.637,0.557-1.098,0.81l-0.856-1.384
		c1.002-0.718,1.954-1.788,2.854-3.209l1.614,0.441c-0.154,0.328-0.318,0.602-0.494,0.82h0.999v-2.799h1.867v0.677h3.008V75.444z
		 M43.768,83.381l-0.823,1.477c-0.798-0.178-1.526-0.39-2.185-0.636v3.763l1.307,0.728l-1.109,1.118
		c1.01,0.246,1.903,0.492,2.679,0.738l-0.834,1.384c-2.496-0.793-5.193-1.374-8.092-1.743l0.725-1.364
		c1.156,0.123,2.288,0.304,3.393,0.543c0.344-0.28,0.681-0.581,1.01-0.902H28.682v1.548c2.35-0.335,4.022-0.636,5.018-0.902v1.518
		c-1.742,0.424-4.095,0.786-7.06,1.087l-0.494-1.507c0.388-0.157,0.582-0.458,0.582-0.902v-5.106
		c-0.461,0.157-1.062,0.345-1.801,0.564l-0.966-1.466c4.355-1.114,7.602-2.598,9.739-4.45l1.735,0.718
		c-0.015,0.055-0.084,0.137-0.208,0.246C37.158,81.241,40.006,82.424,43.768,83.381z M30.735,77.567h-3.777
		c0.366,0.246,0.978,0.701,1.834,1.364C29.736,78.377,30.384,77.922,30.735,77.567z M39.299,83.781
		c-0.732-0.26-1.61-0.643-2.635-1.148v0.502h-5.644v-0.636c-0.747,0.369-1.75,0.796-3.008,1.282H39.299z M38.783,85.565V84.96
		H28.682v0.605H38.783z M38.783,87.267v-0.625H28.682v0.625H38.783z M35.435,81.997c-0.417-0.232-0.944-0.602-1.581-1.107
		c-0.461,0.314-1.069,0.684-1.823,1.107H35.435z M42.901,79.71l-1.153,1.22c-1.076-0.916-1.999-1.63-2.767-2.143
		c-0.93,0.554-1.812,0.96-2.646,1.22l-1.175-1.415c0.549-0.13,1.292-0.403,2.229-0.82c-0.718-0.458-1.669-0.974-2.855-1.548
		l0.802-0.984h-0.922v-1.364h8.191v1.364c-0.505,0.868-1.227,1.712-2.163,2.533C41.349,78.449,42.168,79.095,42.901,79.71z
		 M40.606,75.239H36.17c1.12,0.595,2.049,1.125,2.789,1.589C39.552,76.398,40.101,75.868,40.606,75.239z"/>
	<path fill="#FFFFFF" d="M56.296,76.849l-1.142,1.579c-0.292-0.308-0.647-0.629-1.065-0.964v1.169h-4.677v-0.841
		c-0.571,0.458-1.38,1.025-2.426,1.702l-0.834-1.764c2.013-1.087,3.604-2.57,4.776-4.45l1.867,0.564
		c-0.044,0.123-0.106,0.256-0.187,0.4C53.998,75.044,55.227,75.913,56.296,76.849z M55.396,89.369l-1.548,0.984
		c-0.052-0.157-0.136-0.332-0.253-0.523c-2.115,0.896-4.055,1.603-5.819,2.123l-0.769-1.518c0.396-0.253,0.593-0.581,0.593-0.984
		v-9.998h7.433v6.747h-5.457v3.353c1.464-0.513,2.537-0.933,3.217-1.261c-0.227-0.431-0.469-0.827-0.725-1.189l1.647-0.677
		C54.279,87.24,54.839,88.221,55.396,89.369z M53.079,81.976v-0.902h-3.502v0.902H53.079z M53.101,84.601v-1.118h-3.524v1.118
		H53.101z M53.529,77.044c-0.856-0.649-1.522-1.09-1.998-1.323c-0.286,0.335-0.699,0.776-1.241,1.323H53.529z M66.441,90.169
		l-1.153,1.589c-2.481-1.675-4.055-3.695-4.721-6.06c-0.629,1.839-1.354,3.222-2.174,4.148c-0.82,0.926-1.541,1.615-2.163,2.066
		l-1.395-1.405c0.82-0.588,1.544-1.242,2.174-1.964c0.629-0.721,1.112-1.468,1.449-2.24c0.336-0.772,0.567-1.54,0.691-2.302
		s0.209-2.367,0.253-4.814h1.976c-0.022,0.383-0.033,0.755-0.033,1.118C61.347,84.871,63.044,88.159,66.441,90.169z M65.826,76.162
		c-0.373,2.967-0.94,5.178-1.702,6.634l-1.779-0.656c0.615-1.285,1.05-2.676,1.307-4.173h-4.633
		c-0.623,1.518-1.274,2.748-1.955,3.691l-1.625-1.066c1.449-2.153,2.401-4.583,2.854-7.291l1.966,0.256
		c-0.088,0.595-0.3,1.463-0.637,2.604H65.826z"/>
	<path fill="#FFFFFF" d="M76.872,89.01c-1.932,0.991-4.3,1.853-7.104,2.584l-0.966-1.579c2.679-0.67,4.934-1.446,6.763-2.328
		L76.872,89.01z M88.269,84.283H71.448v-5.035c-0.717,0.677-1.12,1.046-1.208,1.107l-1.307-1.384
		c1.559-1.251,2.997-3.175,4.315-5.773l1.845,0.543c-0.293,0.643-0.531,1.111-0.714,1.405h4.535
		c-0.198-0.499-0.428-0.967-0.692-1.405l1.955-0.42c0.402,0.684,0.725,1.292,0.966,1.825h6.631v1.538h-6.939v1.066h6.335v1.395
		h-6.335v1.066h6.357v1.425h-6.357v1.097h7.433V84.283z M88.631,87.206h-8.816v4.625h-2.042v-4.625h-8.685v-1.641h8.685v-0.841
		h2.042v0.841h8.816V87.206z M78.826,77.751v-1.066h-5.391v1.066H78.826z M78.826,80.212v-1.066h-5.391v1.066H78.826z
		 M78.826,82.735v-1.097h-5.391v1.097H78.826z M88.763,90.107l-1.142,1.507c-2.262-1.08-4.509-1.921-6.742-2.522l1.251-1.466
		C84.532,88.316,86.743,89.144,88.763,90.107z"/>
	<path fill="#FFFFFF" d="M110.283,91.738h-1.866v-0.769H94.208v0.882h-1.91V73.783h17.984V91.738z M108.417,89.41V75.26H94.208
		v14.15H108.417z M107.681,77.526h-5.534v0.625h4.809v4.625h-0.824c0.527,0.479,0.974,1.046,1.34,1.702l-1.395,0.502
		c-0.125-0.28-0.256-0.482-0.396-0.605c-3.674,0.308-7.162,0.53-10.463,0.667l-0.362-1.22c1.837-0.034,3.696-0.089,5.578-0.164
		v-0.882h-4.831v-4.625h4.831v-0.625h-5.578v-1.159h5.578v-0.728h1.713v0.728h5.534V77.526z M107.856,86.785h-2.383v0.779
		c0,0.52-0.188,0.872-0.565,1.056s-1.111,0.277-2.201,0.277c-0.388,0-0.74-0.01-1.054-0.031l-0.494-1.343
		c1.098,0.014,1.788,0.014,2.07,0s0.423-0.126,0.423-0.338v-0.4h-8.718v-1.2h8.718v-0.564h1.822v0.564h2.383V86.785z
		 M100.533,87.811l-0.999,1.138c-0.644-0.308-1.453-0.602-2.426-0.882l1.01-1.138C98.783,87.1,99.589,87.394,100.533,87.811z
		 M100.434,79.915v-0.708h-3.052v0.708H100.434z M100.434,81.679v-0.728h-3.052v0.728H100.434z M105.21,79.915v-0.708h-3.063v0.708
		H105.21z M105.21,81.679v-0.728h-3.063v0.728H105.21z M105.32,82.776h-3.173v0.759l2.591-0.174
		c-0.117-0.137-0.216-0.232-0.296-0.287L105.32,82.776z"/>
	<path fill="#FFFFFF" d="M121.394,90.015c0,1.183-0.735,1.774-2.207,1.774c-0.322,0-0.659-0.017-1.01-0.051l-0.736-1.846
		c0.271,0.014,0.846,0.021,1.724,0.021c0.212,0,0.318-0.096,0.318-0.287V84.56c-0.688,0.807-1.303,1.48-1.845,2.02l-0.67-1.056
		c-0.227,2.939-0.706,5.048-1.438,6.327l-1.625-1.179c0.783-1.62,1.175-3.938,1.175-6.952v-9.936h6.313V90.015z M119.484,79.874
		v-4.266h-2.493v2.379l1.142-0.779C118.726,78.186,119.176,79.074,119.484,79.874z M119.484,81.597v-1.2l-1.329,0.933
		c-0.198-0.8-0.586-1.712-1.164-2.738v5.886C117.921,83.569,118.752,82.608,119.484,81.597z M133.791,90.251l-1,1.6
		c-1.866-0.438-3.605-1.217-5.215-2.338c-1.295,0.902-2.898,1.682-4.809,2.338l-1.098-1.6c1.617-0.444,3.07-1.087,4.359-1.928
		c-1.105-1.094-2.021-2.574-2.745-4.44h-0.988V82.12h9.98v1.764c-0.952,1.859-1.998,3.309-3.14,4.348
		C130.416,89.085,131.968,89.759,133.791,90.251z M133.56,80.971h-3.195c-0.439,0-0.796-0.147-1.071-0.441
		c-0.274-0.294-0.412-0.632-0.412-1.015v-3.794h-3.129v0.943c0,2.099-0.725,3.736-2.174,4.912l-1.647-1.2
		c1.215-0.848,1.823-2.105,1.823-3.773v-2.666h7.082v4.973c0,0.226,0.121,0.338,0.362,0.338h2.36V80.971z M130.002,83.883h-4.601
		c0.615,1.401,1.369,2.475,2.262,3.22C128.674,86.05,129.453,84.977,130.002,83.883z"/>
	<path fill="#FFFFFF" d="M143.024,73.701c-0.241,0.643-0.619,1.504-1.131,2.584l-0.779,1.6v13.966h-2.042V81.115
		c-0.6,0.813-1.156,1.456-1.669,1.928l-1.076-1.969c1.983-2.112,3.528-4.703,4.633-7.772L143.024,73.701z M156.277,79.73
		l-1.307,1.702l-0.45-0.318c0.015,0.772-0.063,2.418-0.231,4.938s-0.32,3.994-0.456,4.424c-0.135,0.431-0.406,0.772-0.813,1.025
		s-1.004,0.379-1.795,0.379c-0.454,0-1.201-0.01-2.24-0.031l-0.516-1.815c0.739,0.055,1.307,0.082,1.702,0.082
		c0.922,0,1.473-0.082,1.652-0.246s0.328-1.248,0.445-3.25s0.176-3.35,0.176-4.04h-3.393c-0.234,4.32-2.196,7.444-5.885,9.372
		l-1.351-1.497c3.235-1.524,4.974-4.149,5.215-7.875h-3.624v-1.63c-0.139,0.13-0.34,0.27-0.604,0.42l-1.197-1.579
		c1.808-1.429,3.246-3.534,4.315-6.316l2.053,0.482c-1.274,2.98-2.712,5.253-4.315,6.819h10.453c-1.559-1.422-2.72-3.186-3.48-5.291
		h-1.845v-1.784h3.371C152.855,76.436,154.228,78.445,156.277,79.73z"/>
	<path fill="#FFFFFF" d="M178.533,77.208h-10.925c-0.292,0.554-0.685,1.155-1.175,1.805h10.552v11.259
		c0,0.465-0.134,0.824-0.401,1.077s-0.672,0.386-1.213,0.4s-1.076,0.021-1.603,0.021c-0.842,0-1.533-0.01-2.075-0.031l-0.867-1.866
		c0.951,0.041,2.17,0.062,3.656,0.062c0.314,0,0.472-0.161,0.472-0.482v-1.928h-10.024c-0.381,1.483-1.16,2.895-2.339,4.235
		l-1.911-1.005c1.618-1.654,2.427-3.203,2.427-4.645v-3.374c-0.996,0.971-1.977,1.747-2.942,2.328l-1.438-1.425
		c2.686-1.695,4.853-3.838,6.5-6.429h-6.258v-1.825h7.313c0.476-0.786,0.819-1.48,1.032-2.082l2.075,0.318
		c-0.19,0.533-0.454,1.121-0.791,1.764h9.937V77.208z M174.954,82.458v-1.661h-9.794v1.661H174.954z M174.954,85.801V84.16h-9.794
		v1.641H174.954z"/>
	<path fill="#FFFFFF" d="M187.009,79.833c1.251,1.688,1.877,3.285,1.877,4.789c0,1.962-1.032,2.943-3.096,2.943
		c-0.22,0-0.458-0.007-0.714-0.021l-0.56-1.876c0.286,0.048,0.619,0.072,1,0.072c0.527,0,0.885-0.068,1.076-0.205
		s0.286-0.41,0.286-0.82c0-1.545-0.666-3.107-1.999-4.686c0.425-0.978,0.94-2.434,1.548-4.368h-2.471v16.14h-1.932V73.783h6.489
		v1.876C188.03,77.191,187.529,78.582,187.009,79.833z M199.921,82.602h-8.048v6.747c1.032-0.294,2.134-0.701,3.305-1.22
		l0.109,1.958c-2.027,0.82-3.722,1.384-5.083,1.692l-0.725-1.569c0.286-0.171,0.428-0.444,0.428-0.82V73.845h10.014V82.602z
		 M197.912,77.403v-1.876h-6.039v1.876H197.912z M197.912,80.93v-1.876h-6.039v1.876H197.912z M201.173,90.374l-1.142,1.538
		c-3.192-1.805-5.281-4.467-6.27-7.988l1.812-0.523c0.271,0.896,0.604,1.688,0.999,2.379c0.974-0.656,1.925-1.497,2.855-2.522
		l1.438,1.22c-1.113,1.258-2.2,2.246-3.261,2.963C198.549,88.583,199.738,89.561,201.173,90.374z"/>
	<path fill="#FFFFFF" d="M212.262,73.978c-1.464,3.698-3.869,6.805-7.213,9.321l-1.285-1.6c3.008-2.112,5.175-4.898,6.5-8.357
		L212.262,73.978z M222.287,90.753l-1.79,1.159c-0.417-0.916-0.838-1.702-1.263-2.358c-3.462,0.759-7.697,1.453-12.704,2.082
		l-0.582-1.6c1.925-1.299,4.179-4.86,6.763-10.685l2.042,0.564c-1.823,3.985-3.697,7.164-5.622,9.536
		c3.374-0.362,6.405-0.858,9.091-1.487c-0.454-0.731-1.233-1.791-2.338-3.179l1.658-1.005
		C219.41,85.968,220.991,88.292,222.287,90.753z M223.758,81.792l-1.197,1.651c-2.781-1.839-4.856-4.519-6.225-8.039h-1.823v-1.784
		h3.261C218.923,77.201,220.918,79.925,223.758,81.792z"/>
	<path fill="#FFFFFF" d="M245.322,89.328c0,1.634-0.856,2.451-2.569,2.451c-1.515,0-2.624-0.014-3.327-0.041l-0.582-1.887
		c1.669,0.034,2.829,0.051,3.48,0.051c0.644,0,0.966-0.178,0.966-0.533V75.547H226.47v-1.723h18.852V89.328z M241.446,79.054
		h-14.504v-1.702h14.504V79.054z M240.008,88.087h-11.759v-7.075h11.759V88.087z M237.966,86.344v-3.609h-7.719v3.609H237.966z"/>
</g>
<g>
	<path fill="#FFFFFF" d="M27.528,115.736h-2.465v-9.308c-0.9,0.844-1.962,1.468-3.184,1.872v-2.241
		c0.643-0.211,1.342-0.611,2.097-1.2c0.754-0.589,1.271-1.276,1.552-2.061h2V115.736z"/>
	<path fill="#FFFFFF" d="M36.528,115.736h-2.465v-9.308c-0.9,0.844-1.962,1.468-3.184,1.872v-2.241
		c0.643-0.211,1.342-0.611,2.097-1.2c0.754-0.589,1.271-1.276,1.552-2.061h2V115.736z"/>
	<path fill="#FFFFFF" d="M40.265,112.756l2.386-0.264c0.058,0.486,0.21,0.847,0.456,1.081s0.57,0.352,0.974,0.352
		c0.509,0,0.941-0.234,1.298-0.703c0.356-0.469,0.584-1.441,0.684-2.918c-0.62,0.721-1.395,1.081-2.325,1.081
		c-1.012,0-1.884-0.391-2.618-1.173s-1.101-1.8-1.101-3.054c0-1.307,0.387-2.36,1.162-3.16s1.762-1.2,2.96-1.2
		c1.304,0,2.374,0.505,3.21,1.516c0.836,1.011,1.254,2.673,1.254,4.988c0,2.355-0.436,4.055-1.307,5.098
		c-0.872,1.043-2.006,1.564-3.403,1.564c-1.006,0-1.819-0.268-2.438-0.804C40.837,114.624,40.44,113.823,40.265,112.756z
		 M45.843,107.36c0-0.797-0.183-1.415-0.548-1.854c-0.366-0.439-0.788-0.659-1.268-0.659c-0.456,0-0.834,0.18-1.136,0.541
		s-0.452,0.951-0.452,1.771c0,0.832,0.164,1.443,0.491,1.833c0.327,0.39,0.737,0.584,1.228,0.584c0.474,0,0.873-0.188,1.197-0.563
		C45.681,108.637,45.843,108.086,45.843,107.36z"/>
	<path fill="#FFFFFF" d="M50.816,115.736v-12.779h2.597v10.608h6.456v2.171H50.816z"/>
	<path fill="#FFFFFF" d="M63.544,109.25l-2.237-0.404c0.251-0.902,0.685-1.57,1.298-2.004s1.526-0.65,2.737-0.65
		c1.099,0,1.918,0.13,2.456,0.391c0.538,0.261,0.917,0.592,1.136,0.993s0.329,1.138,0.329,2.21l-0.026,2.883
		c0,0.82,0.04,1.425,0.118,1.815c0.079,0.39,0.227,0.807,0.443,1.252h-2.438c-0.064-0.164-0.143-0.407-0.237-0.729
		c-0.041-0.146-0.07-0.243-0.087-0.29c-0.421,0.41-0.872,0.718-1.351,0.923s-0.991,0.308-1.535,0.308
		c-0.959,0-1.715-0.261-2.268-0.782s-0.829-1.181-0.829-1.978c0-0.527,0.126-0.998,0.377-1.411s0.604-0.729,1.057-0.949
		s1.107-0.412,1.96-0.576c1.152-0.217,1.95-0.419,2.395-0.606v-0.246c0-0.475-0.117-0.813-0.351-1.015s-0.675-0.303-1.325-0.303
		c-0.438,0-0.78,0.086-1.026,0.259S63.696,108.816,63.544,109.25z M66.842,111.253c-0.316,0.105-0.816,0.231-1.5,0.378
		s-1.132,0.29-1.342,0.431c-0.321,0.229-0.482,0.519-0.482,0.87c0,0.346,0.129,0.645,0.386,0.896s0.584,0.378,0.982,0.378
		c0.444,0,0.868-0.146,1.271-0.439c0.298-0.223,0.494-0.495,0.588-0.817c0.064-0.211,0.097-0.612,0.097-1.204V111.253z"/>
	<path fill="#FFFFFF" d="M80.166,115.736h-2.465v-4.764c0-1.008-0.053-1.66-0.158-1.956c-0.105-0.296-0.276-0.526-0.513-0.69
		s-0.522-0.246-0.855-0.246c-0.427,0-0.81,0.117-1.149,0.352c-0.339,0.234-0.572,0.545-0.697,0.932
		c-0.126,0.387-0.188,1.102-0.188,2.145v4.228h-2.465v-9.334h2.289v1.371c0.813-1.055,1.836-1.582,3.07-1.582
		c0.544,0,1.041,0.098,1.491,0.294c0.45,0.196,0.791,0.447,1.021,0.751s0.392,0.65,0.482,1.037c0.091,0.387,0.136,0.94,0.136,1.661
		V115.736z"/>
	<path fill="#FFFFFF" d="M88.061,112.765l2.456,0.413c-0.315,0.902-0.814,1.589-1.495,2.061c-0.682,0.472-1.534,0.708-2.557,0.708
		c-1.62,0-2.818-0.53-3.596-1.591c-0.614-0.85-0.921-1.922-0.921-3.217c0-1.547,0.403-2.758,1.21-3.634
		c0.807-0.876,1.827-1.314,3.061-1.314c1.386,0,2.479,0.458,3.281,1.375c0.801,0.917,1.184,2.322,1.149,4.214h-6.175
		c0.018,0.732,0.216,1.302,0.597,1.709c0.38,0.407,0.854,0.611,1.421,0.611c0.386,0,0.71-0.105,0.974-0.316
		S87.926,113.234,88.061,112.765z M88.201,110.269c-0.018-0.715-0.202-1.258-0.553-1.63c-0.351-0.372-0.778-0.558-1.28-0.558
		c-0.538,0-0.982,0.196-1.333,0.589s-0.523,0.926-0.518,1.6H88.201z"/>
	<path fill="#FFFFFF" d="M97.674,115.736v-12.885h5.464c1.374,0,2.373,0.116,2.996,0.347c0.623,0.231,1.121,0.643,1.496,1.235
		c0.374,0.592,0.561,1.269,0.561,2.03c0,0.967-0.284,1.765-0.851,2.395c-0.567,0.63-1.415,1.027-2.544,1.191
		c0.562,0.328,1.025,0.688,1.391,1.081c0.365,0.393,0.858,1.09,1.478,2.092l1.57,2.514h-3.105l-1.877-2.804
		c-0.667-1.002-1.123-1.633-1.369-1.894s-0.506-0.439-0.781-0.536s-0.71-0.145-1.307-0.145h-0.526v5.379H97.674z M100.271,108.3
		h1.921c1.246,0,2.023-0.053,2.333-0.158c0.31-0.105,0.553-0.287,0.728-0.545c0.176-0.258,0.263-0.58,0.263-0.967
		c0-0.434-0.115-0.784-0.346-1.05s-0.557-0.435-0.978-0.505c-0.21-0.029-0.842-0.044-1.895-0.044h-2.026V108.3z"/>
	<path fill="#FFFFFF" d="M116.015,112.765l2.456,0.413c-0.315,0.902-0.814,1.589-1.495,2.061c-0.682,0.472-1.534,0.708-2.557,0.708
		c-1.62,0-2.818-0.53-3.596-1.591c-0.614-0.85-0.921-1.922-0.921-3.217c0-1.547,0.403-2.758,1.21-3.634
		c0.807-0.876,1.827-1.314,3.061-1.314c1.386,0,2.479,0.458,3.281,1.375c0.801,0.917,1.184,2.322,1.149,4.214h-6.175
		c0.018,0.732,0.216,1.302,0.597,1.709c0.38,0.407,0.854,0.611,1.421,0.611c0.386,0,0.71-0.105,0.974-0.316
		S115.88,113.234,116.015,112.765z M116.155,110.269c-0.018-0.715-0.202-1.258-0.553-1.63c-0.351-0.372-0.778-0.558-1.28-0.558
		c-0.538,0-0.982,0.196-1.333,0.589s-0.523,0.926-0.518,1.6H116.155z"/>
	<path fill="#FFFFFF" d="M119.743,113.073l2.474-0.378c0.105,0.48,0.319,0.845,0.64,1.094c0.322,0.249,0.772,0.374,1.351,0.374
		c0.637,0,1.117-0.117,1.438-0.352c0.216-0.164,0.325-0.384,0.325-0.659c0-0.188-0.059-0.343-0.176-0.466
		c-0.123-0.117-0.397-0.226-0.824-0.325c-1.988-0.439-3.249-0.841-3.781-1.204c-0.737-0.504-1.105-1.204-1.105-2.101
		c0-0.809,0.318-1.488,0.956-2.039c0.637-0.551,1.625-0.826,2.965-0.826c1.274,0,2.222,0.208,2.842,0.624s1.047,1.031,1.281,1.846
		l-2.325,0.431c-0.099-0.363-0.288-0.642-0.565-0.835c-0.278-0.193-0.674-0.29-1.188-0.29c-0.649,0-1.114,0.091-1.395,0.272
		c-0.187,0.129-0.281,0.296-0.281,0.501c0,0.176,0.082,0.325,0.246,0.448c0.222,0.164,0.99,0.396,2.303,0.694
		c1.313,0.299,2.229,0.665,2.75,1.099c0.514,0.439,0.772,1.052,0.772,1.837c0,0.855-0.357,1.591-1.07,2.206
		s-1.769,0.923-3.167,0.923c-1.269,0-2.273-0.258-3.013-0.773S119.971,113.958,119.743,113.073z"/>
	<path fill="#FFFFFF" d="M134.874,106.402v1.969h-1.684v3.762c0,0.762,0.016,1.206,0.048,1.332s0.105,0.23,0.219,0.312
		s0.253,0.123,0.417,0.123c0.228,0,0.559-0.079,0.991-0.237l0.21,1.916c-0.573,0.246-1.222,0.369-1.947,0.369
		c-0.444,0-0.845-0.075-1.202-0.224c-0.356-0.149-0.618-0.343-0.785-0.58c-0.167-0.237-0.282-0.558-0.346-0.962
		c-0.053-0.287-0.079-0.867-0.079-1.74v-4.069h-1.131v-1.969h1.131v-1.854l2.474-1.441v3.296H134.874z"/>
	<path fill="#FFFFFF" d="M138.426,109.25l-2.237-0.404c0.251-0.902,0.685-1.57,1.298-2.004s1.526-0.65,2.737-0.65
		c1.099,0,1.918,0.13,2.456,0.391c0.538,0.261,0.917,0.592,1.136,0.993s0.329,1.138,0.329,2.21l-0.026,2.883
		c0,0.82,0.04,1.425,0.118,1.815c0.079,0.39,0.227,0.807,0.443,1.252h-2.438c-0.064-0.164-0.143-0.407-0.237-0.729
		c-0.041-0.146-0.07-0.243-0.087-0.29c-0.421,0.41-0.872,0.718-1.351,0.923s-0.991,0.308-1.535,0.308
		c-0.959,0-1.715-0.261-2.268-0.782s-0.829-1.181-0.829-1.978c0-0.527,0.126-0.998,0.377-1.411s0.604-0.729,1.057-0.949
		s1.107-0.412,1.96-0.576c1.152-0.217,1.95-0.419,2.395-0.606v-0.246c0-0.475-0.117-0.813-0.351-1.015s-0.675-0.303-1.325-0.303
		c-0.438,0-0.78,0.086-1.026,0.259S138.578,108.816,138.426,109.25z M141.725,111.253c-0.316,0.105-0.816,0.231-1.5,0.378
		s-1.132,0.29-1.342,0.431c-0.321,0.229-0.482,0.519-0.482,0.87c0,0.346,0.129,0.645,0.386,0.896s0.584,0.378,0.982,0.378
		c0.444,0,0.868-0.146,1.271-0.439c0.298-0.223,0.494-0.495,0.588-0.817c0.064-0.211,0.097-0.612,0.097-1.204V111.253z"/>
	<path fill="#FFFFFF" d="M152.707,115.736v-1.397c-0.339,0.498-0.785,0.891-1.338,1.178s-1.136,0.431-1.75,0.431
		c-0.625,0-1.187-0.138-1.684-0.413s-0.856-0.662-1.079-1.16c-0.223-0.498-0.333-1.187-0.333-2.065v-5.906h2.465v4.289
		c0,1.313,0.045,2.117,0.136,2.413s0.256,0.53,0.496,0.703s0.544,0.259,0.912,0.259c0.421,0,0.798-0.116,1.132-0.347
		c0.333-0.231,0.562-0.519,0.684-0.861c0.123-0.343,0.184-1.182,0.184-2.518v-3.938h2.465v9.334H152.707z"/>
	<path fill="#FFFFFF" d="M159.908,115.736h-2.465v-9.334h2.29v1.327c0.392-0.627,0.744-1.04,1.057-1.239
		c0.313-0.199,0.668-0.299,1.066-0.299c0.562,0,1.102,0.155,1.623,0.466l-0.763,2.153c-0.416-0.27-0.801-0.404-1.158-0.404
		c-0.345,0-0.637,0.095-0.877,0.286s-0.429,0.535-0.566,1.033s-0.206,1.541-0.206,3.129V115.736z"/>
	<path fill="#FFFFFF" d="M166.381,109.25l-2.237-0.404c0.251-0.902,0.685-1.57,1.298-2.004s1.526-0.65,2.737-0.65
		c1.099,0,1.918,0.13,2.456,0.391c0.538,0.261,0.917,0.592,1.136,0.993s0.329,1.138,0.329,2.21l-0.026,2.883
		c0,0.82,0.04,1.425,0.118,1.815c0.079,0.39,0.227,0.807,0.443,1.252h-2.438c-0.064-0.164-0.143-0.407-0.237-0.729
		c-0.041-0.146-0.07-0.243-0.087-0.29c-0.421,0.41-0.872,0.718-1.351,0.923s-0.991,0.308-1.535,0.308
		c-0.959,0-1.715-0.261-2.268-0.782s-0.829-1.181-0.829-1.978c0-0.527,0.126-0.998,0.377-1.411s0.604-0.729,1.057-0.949
		s1.107-0.412,1.96-0.576c1.152-0.217,1.95-0.419,2.395-0.606v-0.246c0-0.475-0.117-0.813-0.351-1.015s-0.675-0.303-1.325-0.303
		c-0.438,0-0.78,0.086-1.026,0.259S166.533,108.816,166.381,109.25z M169.679,111.253c-0.316,0.105-0.816,0.231-1.5,0.378
		s-1.132,0.29-1.342,0.431c-0.321,0.229-0.482,0.519-0.482,0.87c0,0.346,0.129,0.645,0.386,0.896s0.584,0.378,0.982,0.378
		c0.444,0,0.868-0.146,1.271-0.439c0.298-0.223,0.494-0.495,0.588-0.817c0.064-0.211,0.097-0.612,0.097-1.204V111.253z"/>
	<path fill="#FFFFFF" d="M183.003,115.736h-2.465v-4.764c0-1.008-0.053-1.66-0.158-1.956c-0.105-0.296-0.276-0.526-0.513-0.69
		s-0.522-0.246-0.855-0.246c-0.427,0-0.81,0.117-1.149,0.352c-0.339,0.234-0.572,0.545-0.697,0.932
		c-0.126,0.387-0.188,1.102-0.188,2.145v4.228h-2.465v-9.334h2.289v1.371c0.813-1.055,1.836-1.582,3.07-1.582
		c0.544,0,1.041,0.098,1.491,0.294c0.45,0.196,0.791,0.447,1.021,0.751s0.392,0.65,0.482,1.037c0.091,0.387,0.136,0.94,0.136,1.661
		V115.736z"/>
	<path fill="#FFFFFF" d="M189.774,106.402v1.969h-1.684v3.762c0,0.762,0.016,1.206,0.048,1.332s0.105,0.23,0.219,0.312
		s0.253,0.123,0.417,0.123c0.228,0,0.559-0.079,0.991-0.237l0.21,1.916c-0.573,0.246-1.222,0.369-1.947,0.369
		c-0.444,0-0.845-0.075-1.202-0.224c-0.356-0.149-0.618-0.343-0.785-0.58c-0.167-0.237-0.282-0.558-0.346-0.962
		c-0.053-0.287-0.079-0.867-0.079-1.74v-4.069h-1.131v-1.969h1.131v-1.854l2.474-1.441v3.296H189.774z"/>
	<path fill="#FFFFFF" d="M202.476,110.999v-2.171h5.596v5.133c-0.544,0.527-1.332,0.992-2.364,1.393
		c-1.032,0.401-2.078,0.602-3.136,0.602c-1.345,0-2.518-0.283-3.518-0.848s-1.751-1.374-2.254-2.426s-0.754-2.196-0.754-3.432
		c0-1.342,0.281-2.534,0.842-3.577s1.383-1.843,2.465-2.399c0.825-0.428,1.851-0.642,3.079-0.642c1.597,0,2.843,0.335,3.741,1.006
		c0.897,0.671,1.475,1.598,1.732,2.782l-2.579,0.483c-0.181-0.633-0.521-1.132-1.021-1.499s-1.125-0.549-1.873-0.549
		c-1.134,0-2.036,0.36-2.706,1.081c-0.669,0.721-1.004,1.79-1.004,3.208c0,1.529,0.339,2.676,1.018,3.441s1.567,1.147,2.667,1.147
		c0.544,0,1.089-0.107,1.636-0.321c0.546-0.214,1.016-0.473,1.408-0.778v-1.635H202.476z"/>
	<path fill="#FFFFFF" d="M212.809,115.736h-2.465v-9.334h2.29v1.327c0.392-0.627,0.744-1.04,1.057-1.239
		c0.313-0.199,0.668-0.299,1.066-0.299c0.562,0,1.102,0.155,1.623,0.466l-0.763,2.153c-0.416-0.27-0.801-0.404-1.158-0.404
		c-0.345,0-0.637,0.095-0.877,0.286s-0.429,0.535-0.566,1.033s-0.206,1.541-0.206,3.129V115.736z"/>
	<path fill="#FFFFFF" d="M216.87,110.937c0-0.82,0.202-1.614,0.605-2.382c0.403-0.768,0.975-1.354,1.715-1.758
		c0.739-0.404,1.565-0.606,2.478-0.606c1.409,0,2.564,0.458,3.465,1.375s1.351,2.076,1.351,3.476c0,1.412-0.455,2.583-1.364,3.511
		s-2.054,1.393-3.434,1.393c-0.854,0-1.668-0.193-2.443-0.58s-1.364-0.954-1.767-1.701
		C217.071,112.919,216.87,112.009,216.87,110.937z M219.396,111.069c0,0.926,0.219,1.635,0.658,2.127s0.979,0.738,1.623,0.738
		c0.644,0,1.183-0.246,1.619-0.738c0.436-0.492,0.653-1.207,0.653-2.145c0-0.914-0.218-1.617-0.653-2.109
		c-0.436-0.492-0.975-0.738-1.619-0.738c-0.643,0-1.184,0.246-1.623,0.738S219.396,110.143,219.396,111.069z"/>
	<path fill="#FFFFFF" d="M234.544,115.736v-1.397c-0.339,0.498-0.785,0.891-1.338,1.178s-1.136,0.431-1.75,0.431
		c-0.625,0-1.187-0.138-1.684-0.413s-0.856-0.662-1.079-1.16c-0.223-0.498-0.333-1.187-0.333-2.065v-5.906h2.465v4.289
		c0,1.313,0.045,2.117,0.136,2.413s0.256,0.53,0.496,0.703s0.544,0.259,0.912,0.259c0.421,0,0.798-0.116,1.132-0.347
		c0.333-0.231,0.562-0.519,0.684-0.861c0.123-0.343,0.184-1.182,0.184-2.518v-3.938h2.465v9.334H234.544z"/>
	<path fill="#FFFFFF" d="M239.316,106.402h2.298v1.371c0.298-0.469,0.702-0.85,1.21-1.143s1.073-0.439,1.693-0.439
		c1.082,0,2,0.425,2.754,1.274s1.132,2.033,1.132,3.551c0,1.559-0.38,2.77-1.141,3.634s-1.681,1.296-2.763,1.296
		c-0.515,0-0.981-0.103-1.399-0.308c-0.418-0.205-0.858-0.557-1.32-1.055v4.702h-2.465V106.402z M241.754,110.911
		c0,1.049,0.208,1.824,0.623,2.325c0.416,0.501,0.921,0.751,1.518,0.751c0.573,0,1.05-0.23,1.43-0.69
		c0.38-0.46,0.57-1.214,0.57-2.263c0-0.979-0.196-1.705-0.588-2.18c-0.392-0.475-0.877-0.712-1.456-0.712
		c-0.602,0-1.102,0.233-1.5,0.699C241.953,109.307,241.754,109.997,241.754,110.911z"/>
</g>
</svg>
