<?xml version="1.0" encoding="utf-8"?>
<!-- Generator: Adobe Illustrator 16.0.0, SVG Export Plug-In . SVG Version: 6.00 Build 0)  -->
<!DOCTYPE svg PUBLIC "-//W3C//DTD SVG 1.1//EN" "http://www.w3.org/Graphics/SVG/1.1/DTD/svg11.dtd">
<svg version="1.1" id="圖層_1" xmlns="http://www.w3.org/2000/svg" xmlns:xlink="http://www.w3.org/1999/xlink" x="0px" y="0px"
	 width="260px" height="100px" viewBox="0 0 260 100" enable-background="new 0 0 260 100" xml:space="preserve">
<g>
	<path fill="#6E3929" stroke="#621E15" stroke-width="0.5" stroke-miterlimit="10" d="M137.38,8.925c0,0-8.192-5.409-20.1,3.799
		c0,0-9.459,9.127-11.57,20.618c0,0-2.703,16.137,0.508,25.938c0,0,3.039,4.67,3.375,12.643c0,0,1.523,2.565,0.676,8.394
		c0,0,0.169,7.943,4.73,9.379c0,0,5.575,2.281,2.027-1.858c0,0-2.364-2.026-0.169-7.942c0,0-0.083,7.353,5.153,8.448
		c0,0,2.278,0.422,3.799-1.35c0,0,1.236-2.011-1.091-2.188c-0.107-0.006-0.222-0.009-0.346-0.009c-2.785,0-2.279-0.17-1.689-4.987
		c0,0,0.847-3.125,3.379-6.082c0,0-2.532-1.69-1.521-4.731c0,0,7.179,3.802,17.061,1.69c0,0,2.111-0.172,5.487-1.943
		c0,0-1.097,6.504,0.508,11.066c0,0,0.846,5.576-1.605,5.914c0,0-7.854,1.861-1.688,3.804c0,0,2.448,0.168,3.968-0.167
		c0,0-3.718,1.52,0.421,3.037c0,0,3.549,1.945,8.278-3.209c0,0,3.719-2.62,3.466-8.449c0,0-2.958-8.28-0.341-14.87
		c0,0,5.659,4.646,3.379,10.392c0,0,0.422,6.083,3.379-2.62c0,0,3.123-9.545,0.504-12.248c0,0-0.928-6.168,0.424-7.521
		c0,0,1.753-3.296,0.624-9.042c0,0-0.624-18.415-11.859-29.652C156.55,15.178,143.124,2.927,137.38,8.925z"/>
	<path fill="#444344" stroke="#6B2C19" stroke-miterlimit="10" d="M146.822,69.355c5.021-3.243,8.367-11.349,8.367-11.349
		c5.186-6.484,1.756-11.436,1.756-11.436c-2.342-5.974-4.014-10.154-4.014-10.154c-3.013-14.42-18.485-17.578-18.485-17.578
		s-22.746-0.597-22.497,27.818c0,0-0.584,17.409,12.544,22.953"/>
	<path fill="none" stroke="#651F16" stroke-width="0.5" stroke-miterlimit="10" d="M161.446,64.32c0,0,9.387-10.324,2.134-23.636
		c0,0-2.473-2.476-2.134-8.022c0,0-1.706-6.825-8.195-11.859c0,0-9.813-8.618-15.787-6.229"/>
	<path fill="none" stroke="#621E15" stroke-width="0.5" stroke-miterlimit="10" d="M138.148,11.757c0,0-14.08-3.074-24.319,7.08"/>
	<path fill="none" stroke="#6B2C19" stroke-width="0.5" stroke-miterlimit="10" d="M127.054,14.154c0,0-14.676,2.979-19.71,19.362"
		/>
	<path fill="none" stroke="#6B2C19" stroke-width="0.5" stroke-miterlimit="10" d="M138.574,12.099c0,0,12.12-3.072,20.056,12.884"
		/>
	<path fill="#5E2E23" d="M152.656,87.842c0,0,1.615-3.182-1.453-4.974c0,0-2.22-2.313-3.667-14.307c0,0,3.588-2.296,5.921-6.728
		c0,0-3.534,13.925,2.188,19.877c0,0,1.145,3.729,0.594,6.928C156.239,88.639,154.191,86.064,152.656,87.842z"/>
	<path fill="#5E2E23" d="M110.671,68.729c4.788,2.391,7.339,7.51,7.339,7.51c5.205-2.389,6.093,0.814,6.093,0.814l2.477-3.346
		c0,0-2.333-1.623-1.883-4.05c0,0-15.457-4.391-12.14-30.949l-1.202,1.008c0,0-1.706-5.974,0.938-9.984c0,0,2.901-3.288,1.537-7.744
		c0,0-9.658,10.902-9.183,28.055C104.646,50.043,106.49,66.643,110.671,68.729z"/>
	<path fill="#5E2E23" d="M168.737,43.359c0,0-3.889-4.157-4.486-13.032c0,0-2.219-9.132-8.193-14.166c0,0-1.156-1.157-1.26-2.669
		C154.797,13.492,166.857,21.489,168.737,43.359z"/>
	<path fill="#6E3929" stroke="#621E15" stroke-width="0.5" stroke-miterlimit="10" d="M116.984,79.895c0,0,0.42-2.448,1.026-3.655"
		/>
	<path fill="#6E3929" stroke="#621E15" stroke-width="0.5" stroke-miterlimit="10" d="M148.729,89.36c0,0,2.036-0.567,4.222-1.76"/>
	<path fill="#F7DBDE" d="M112.407,44.747c0.451-14.812,9.132-25.634,22.642-25.634c7.172,1.86,18.253,9.282,22.484,25.608
		c0,16.175-7.753,27.363-22.062,27.363C121.582,72.085,111.901,61.298,112.407,44.747z"/>
	<g>
		<g opacity="0.6">
			<g>
				<path fill="#E61673" d="M129.405,61.382c2.157,2.908,9.577,2.959,11.69-0.022c0.467-0.659-0.617-1.282-1.079-0.631
					c-1.493,2.105-7.978,2.118-9.532,0.022C130.01,60.111,128.924,60.733,129.405,61.382L129.405,61.382z"/>
			</g>
		</g>
		<path fill="#F7DBDE" d="M113.954,56.297c-2.977,0-6.045-2.397-6.045-5.142c0-2.743,1.611-6.471,4.479-3.928"/>
		<g>
			<g>
				<path d="M117.803,42.141c2.145-0.983,4.987-0.647,7.126,0.151c0.43,0.16,1.749-0.472,1.155-0.693
					c-2.708-1.01-6.158-1.271-8.85-0.038C116.316,41.981,117.162,42.435,117.803,42.141L117.803,42.141z"/>
			</g>
		</g>
		<g>
			<g>
				<path d="M144.473,42.325c2.147-0.984,4.989-0.648,7.129,0.154c0.423,0.158,1.743-0.466,1.157-0.686
					c-2.705-1.015-6.161-1.268-8.851-0.035C142.989,42.181,143.837,42.616,144.473,42.325L144.473,42.325z"/>
			</g>
		</g>
		
			<ellipse fill="#3E3A39" stroke="#000000" stroke-width="0.5" stroke-miterlimit="10" cx="148.966" cy="48.188" rx="3.215" ry="3.467"/>
		
			<ellipse fill="#3E3A39" stroke="#000000" stroke-width="0.5" stroke-miterlimit="10" cx="121.858" cy="47.874" rx="3.215" ry="3.466"/>
		<ellipse fill="#FFFFFF" cx="122.326" cy="46.379" rx="1.02" ry="1.1"/>
		<ellipse fill="#FFFFFF" cx="149.725" cy="47.089" rx="1.021" ry="1.101"/>
		<ellipse fill="#D6BEC3" cx="135.056" cy="56.697" rx="1.59" ry="1.481"/>
		
			<ellipse fill="#FBDFE3" stroke="#E3CED1" stroke-width="0.25" stroke-miterlimit="10" cx="135.064" cy="56.362" rx="1.407" ry="1.069"/>
		<g>
			<g>
				<path fill="#A91A4F" d="M129.729,61.192c1.98,2.669,9.105,2.712,11.043-0.022c0.187-0.264-0.247-0.513-0.432-0.252
					c-1.673,2.359-8.443,2.363-10.18,0.022C129.97,60.685,129.536,60.934,129.729,61.192L129.729,61.192z"/>
			</g>
		</g>
	</g>
	<path fill="#E0CBCD" d="M155.253,57.794c0,0,3.803-6.369-7.717-25.435c0,0-5.12-9.194-12.716-11.811c0,0-1.109-0.505,0-1.264
		c0,0,13.141-1.015,19.458,17.209C154.278,36.494,160.885,45.958,155.253,57.794z"/>
</g>
<g>
	<g>
		<path fill="none" stroke="#40220F" stroke-width="4" stroke-miterlimit="10" d="M202.138,60.105c0.633,0,1.195,0.188,1.688,0.563
			c0.492,0.258,0.738,0.785,0.738,1.582c-0.07,0.727-0.224,1.559-0.457,2.496h5.203c0.961,0,1.71,0.188,2.25,0.563
			c0.563,0.492,0.844,1.148,0.844,1.969c0,0.445-0.023,0.809-0.07,1.09c-0.422,2.156-0.997,4.102-1.723,5.836
			c-0.211,0.563-0.516,0.926-0.914,1.09c-0.305,0.211-0.809,0.316-1.512,0.316c-0.516,0-0.997-0.223-1.441-0.668
			c-0.118-0.07-0.199-0.188-0.246-0.352v2.461c0,1.547,0.304,3.105,0.914,4.676c0.726,1.758,2.121,3.797,4.184,6.117
			c0.539,0.422,0.809,1.113,0.809,2.074c0,0.727-0.27,1.289-0.809,1.688c-0.586,0.492-1.254,0.738-2.004,0.738
			c-0.259-0.047-0.47-0.105-0.633-0.176c-0.188-0.07-0.364-0.199-0.527-0.387c-0.867-0.82-2.122-2.766-3.762-5.836
			c-0.141-0.258-0.27-0.387-0.387-0.387c-0.094,0-0.176,0.105-0.246,0.316c-1.103,2.297-2.52,4.348-4.254,6.152
			c-0.164,0.211-0.505,0.316-1.02,0.316c-0.773-0.047-1.406-0.375-1.898-0.984c-0.07-0.117-0.129-0.211-0.176-0.281
			c-0.188,0.07-0.387,0.105-0.598,0.105h-12.48c-2.25,0-3.375-1.113-3.375-3.34V64.465c-0.094-0.07-0.176-0.129-0.246-0.176
			c-0.329-0.258-0.492-0.762-0.492-1.512s0.163-1.266,0.492-1.547c0.304-0.258,0.809-0.387,1.512-0.387h14.871
			c0.726,0,1.242,0.141,1.547,0.422c0.304,0.234,0.457,0.738,0.457,1.512c0,0.609-0.129,1.066-0.387,1.371
			c-0.352,0.398-0.892,0.598-1.617,0.598h-11.953v21.832c0,0.539,0.281,0.809,0.844,0.809h10.828c0.539,0,0.914,0.188,1.125,0.563
			c1.758-1.945,2.976-3.727,3.656-5.344c0.75-1.758,1.125-3.504,1.125-5.238v-3.762c0-0.703,0.211-1.23,0.633-1.582
			c0.374-0.328,0.926-0.492,1.652-0.492c0.75,0,1.313,0.141,1.688,0.422c0.258,0.234,0.422,0.598,0.492,1.09
			c0.047-0.117,0.082-0.223,0.105-0.316c0.796-2.109,1.195-3.316,1.195-3.621c0-0.188-0.129-0.281-0.387-0.281h-4.43
			c-0.727,2.297-1.419,4.137-2.074,5.52c-0.234,0.633-0.892,0.949-1.969,0.949c-0.492,0-0.997-0.234-1.512-0.703
			c-0.375-0.258-0.563-0.727-0.563-1.406c0-0.586,0.176-1.254,0.527-2.004c1.147-2.766,2.132-6.035,2.953-9.809
			C200.543,60.527,201.153,60.105,202.138,60.105z M186.95,76.172h2.566c1.195,0,1.793,0.598,1.793,1.793v6.047
			c0,1.219-0.598,1.828-1.793,1.828h-2.566c-1.195,0-1.793-0.609-1.793-1.828v-6.047C185.157,76.77,185.755,76.172,186.95,76.172z
			 M188.638,66.469h5.625c1.406,0,2.109,0.703,2.109,2.109v4.078c0,1.383-0.703,2.074-2.109,2.074h-5.625
			c-1.384,0-2.074-0.691-2.074-2.074v-4.078C186.563,67.172,187.254,66.469,188.638,66.469z M188.497,82.887
			c0.281,0,0.422-0.141,0.422-0.422v-2.953c0-0.258-0.141-0.387-0.422-0.387h-0.527c-0.281,0-0.422,0.129-0.422,0.387v2.953
			c0,0.281,0.141,0.422,0.422,0.422H188.497z M192.47,71.918c0.352,0,0.527-0.176,0.527-0.527v-1.547
			c0-0.398-0.176-0.598-0.527-0.598h-1.969c-0.399,0-0.598,0.199-0.598,0.598v1.547c0,0.352,0.198,0.527,0.598,0.527H192.47z
			 M194.017,76.172h2.531c1.218,0,1.828,0.598,1.828,1.793v6.047c0,1.219-0.61,1.828-1.828,1.828h-2.531
			c-1.219,0-1.828-0.609-1.828-1.828v-6.047C192.188,76.77,192.798,76.172,194.017,76.172z M195.563,82.887
			c0.258,0,0.387-0.141,0.387-0.422v-2.953c0-0.258-0.129-0.387-0.387-0.387h-0.563c-0.305,0-0.457,0.129-0.457,0.387v2.953
			c0,0.281,0.152,0.422,0.457,0.422H195.563z"/>
		<path fill="none" stroke="#40220F" stroke-width="4" stroke-miterlimit="10" d="M245.176,61.371c1.664,0,2.496,0.809,2.496,2.426
			v5.766c0,1.969-0.879,2.953-2.637,2.953h-20.004c0,6.094-0.363,10.453-1.09,13.078c-0.375,2.414-1.043,4.277-2.004,5.59
			c-0.399,0.68-1.043,1.02-1.934,1.02c-1.032,0-1.7-0.199-2.004-0.598c-0.47-0.305-0.703-0.82-0.703-1.547
			c0-0.492,0.105-0.996,0.316-1.512c0.844-1.852,1.512-4.16,2.004-6.926c0.422-2.625,0.633-5.719,0.633-9.281v-8.402
			c0-1.711,1.031-2.566,3.094-2.566H245.176z M225.031,68.438h17.191c0.445,0,0.668-0.199,0.668-0.598v-1.828
			c0-0.352-0.129-0.527-0.387-0.527h-17.016c-0.305,0-0.457,0.176-0.457,0.527V68.438z M244.578,74.871
			c0.703,0,1.277,0.305,1.723,0.914c0.375,0.281,0.563,0.914,0.563,1.898c0,0.68-0.34,1.242-1.02,1.688
			c-2.133,0.82-4.535,1.535-7.207,2.145c-2.063,0.469-4.113,0.867-6.152,1.195v2.566c0,1.523,0.762,2.285,2.285,2.285h7.734
			c0.469,0,0.797-0.188,0.984-0.563c0.258-0.539,0.434-1.289,0.527-2.25c0.258-0.68,0.961-1.055,2.109-1.125
			c0.773,0.023,1.43,0.223,1.969,0.598c0.445,0.375,0.68,0.914,0.703,1.617c0,1.688-0.363,3.07-1.09,4.148
			c-0.68,1.172-2.039,1.863-4.078,2.074h-11.004c-1.805,0-3.129-0.434-3.973-1.301c-0.727-0.68-1.09-1.852-1.09-3.516V75.891
			c0-0.633,0.199-1.195,0.598-1.688c0.422-0.398,1.031-0.598,1.828-0.598c0.703,0,1.301,0.199,1.793,0.598
			c0.469,0.375,0.703,0.938,0.703,1.688v2.18c3.211-0.656,6.645-1.594,10.301-2.813C243.395,75,243.992,74.871,244.578,74.871z"/>
	</g>
	<g>
		<path fill="#EA5514" d="M201.137,59.104c0.633,0,1.195,0.188,1.688,0.563c0.492,0.258,0.738,0.785,0.738,1.582
			c-0.07,0.727-0.223,1.559-0.457,2.496h5.203c0.961,0,1.711,0.188,2.25,0.563c0.563,0.492,0.844,1.148,0.844,1.969
			c0,0.445-0.023,0.809-0.07,1.09c-0.422,2.156-0.996,4.102-1.723,5.836c-0.211,0.563-0.516,0.926-0.914,1.09
			c-0.305,0.211-0.809,0.316-1.512,0.316c-0.516,0-0.996-0.223-1.441-0.668c-0.117-0.07-0.199-0.188-0.246-0.352v2.461
			c0,1.547,0.305,3.105,0.914,4.676c0.727,1.758,2.121,3.797,4.184,6.117c0.539,0.422,0.809,1.113,0.809,2.074
			c0,0.727-0.27,1.289-0.809,1.688c-0.586,0.492-1.254,0.738-2.004,0.738c-0.258-0.047-0.469-0.105-0.633-0.176
			c-0.188-0.07-0.363-0.199-0.527-0.387c-0.867-0.82-2.121-2.766-3.762-5.836c-0.141-0.258-0.27-0.387-0.387-0.387
			c-0.094,0-0.176,0.105-0.246,0.316c-1.102,2.297-2.52,4.348-4.254,6.152c-0.164,0.211-0.504,0.316-1.02,0.316
			c-0.773-0.047-1.406-0.375-1.898-0.984c-0.07-0.117-0.129-0.211-0.176-0.281c-0.188,0.07-0.387,0.105-0.598,0.105h-12.48
			c-2.25,0-3.375-1.113-3.375-3.34V63.464c-0.094-0.07-0.176-0.129-0.246-0.176c-0.328-0.258-0.492-0.762-0.492-1.512
			s0.164-1.266,0.492-1.547c0.305-0.258,0.809-0.387,1.512-0.387h14.871c0.727,0,1.242,0.141,1.547,0.422
			c0.305,0.234,0.457,0.738,0.457,1.512c0,0.609-0.129,1.066-0.387,1.371c-0.352,0.398-0.891,0.598-1.617,0.598h-11.953v21.832
			c0,0.539,0.281,0.809,0.844,0.809h10.828c0.539,0,0.914,0.188,1.125,0.563c1.758-1.945,2.977-3.727,3.656-5.344
			c0.75-1.758,1.125-3.504,1.125-5.238v-3.762c0-0.703,0.211-1.23,0.633-1.582c0.375-0.328,0.926-0.492,1.652-0.492
			c0.75,0,1.313,0.141,1.688,0.422c0.258,0.234,0.422,0.598,0.492,1.09c0.047-0.117,0.082-0.223,0.105-0.316
			c0.797-2.109,1.195-3.316,1.195-3.621c0-0.188-0.129-0.281-0.387-0.281h-4.43c-0.727,2.297-1.418,4.137-2.074,5.52
			c-0.234,0.633-0.891,0.949-1.969,0.949c-0.492,0-0.996-0.234-1.512-0.703c-0.375-0.258-0.563-0.727-0.563-1.406
			c0-0.586,0.176-1.254,0.527-2.004c1.148-2.766,2.133-6.035,2.953-9.809C199.543,59.526,200.152,59.104,201.137,59.104z
			 M185.949,75.171h2.566c1.195,0,1.793,0.598,1.793,1.793v6.047c0,1.219-0.598,1.828-1.793,1.828h-2.566
			c-1.195,0-1.793-0.609-1.793-1.828v-6.047C184.156,75.769,184.754,75.171,185.949,75.171z M187.637,65.468h5.625
			c1.406,0,2.109,0.703,2.109,2.109v4.078c0,1.383-0.703,2.074-2.109,2.074h-5.625c-1.383,0-2.074-0.691-2.074-2.074v-4.078
			C185.563,66.171,186.254,65.468,187.637,65.468z M187.496,81.886c0.281,0,0.422-0.141,0.422-0.422v-2.953
			c0-0.258-0.141-0.387-0.422-0.387h-0.527c-0.281,0-0.422,0.129-0.422,0.387v2.953c0,0.281,0.141,0.422,0.422,0.422H187.496z
			 M191.469,70.917c0.352,0,0.527-0.176,0.527-0.527v-1.547c0-0.398-0.176-0.598-0.527-0.598H189.5
			c-0.398,0-0.598,0.199-0.598,0.598v1.547c0,0.352,0.199,0.527,0.598,0.527H191.469z M193.016,75.171h2.531
			c1.219,0,1.828,0.598,1.828,1.793v6.047c0,1.219-0.609,1.828-1.828,1.828h-2.531c-1.219,0-1.828-0.609-1.828-1.828v-6.047
			C191.188,75.769,191.797,75.171,193.016,75.171z M194.563,81.886c0.258,0,0.387-0.141,0.387-0.422v-2.953
			c0-0.258-0.129-0.387-0.387-0.387H194c-0.305,0-0.457,0.129-0.457,0.387v2.953c0,0.281,0.152,0.422,0.457,0.422H194.563z"/>
		<path fill="#EA5514" d="M244.175,60.37c1.664,0,2.496,0.809,2.496,2.426v5.766c0,1.969-0.879,2.953-2.637,2.953H224.03
			c0,6.094-0.363,10.453-1.09,13.078c-0.375,2.414-1.043,4.277-2.004,5.59c-0.398,0.68-1.043,1.02-1.934,1.02
			c-1.031,0-1.699-0.199-2.004-0.598c-0.469-0.305-0.703-0.82-0.703-1.547c0-0.492,0.105-0.996,0.316-1.512
			c0.844-1.852,1.512-4.16,2.004-6.926c0.422-2.625,0.633-5.719,0.633-9.281v-8.402c0-1.711,1.031-2.566,3.094-2.566H244.175z
			 M224.03,67.437h17.191c0.445,0,0.668-0.199,0.668-0.598v-1.828c0-0.352-0.129-0.527-0.387-0.527h-17.016
			c-0.305,0-0.457,0.176-0.457,0.527V67.437z M243.577,73.87c0.703,0,1.277,0.305,1.723,0.914c0.375,0.281,0.563,0.914,0.563,1.898
			c0,0.68-0.34,1.242-1.02,1.688c-2.133,0.82-4.535,1.535-7.207,2.145c-2.063,0.469-4.113,0.867-6.152,1.195v2.566
			c0,1.523,0.762,2.285,2.285,2.285h7.734c0.469,0,0.797-0.188,0.984-0.563c0.258-0.539,0.434-1.289,0.527-2.25
			c0.258-0.68,0.961-1.055,2.109-1.125c0.773,0.023,1.43,0.223,1.969,0.598c0.445,0.375,0.68,0.914,0.703,1.617
			c0,1.688-0.363,3.07-1.09,4.148c-0.68,1.172-2.039,1.863-4.078,2.074h-11.004c-1.805,0-3.129-0.434-3.973-1.301
			c-0.727-0.68-1.09-1.852-1.09-3.516V74.89c0-0.633,0.199-1.195,0.598-1.688c0.422-0.398,1.031-0.598,1.828-0.598
			c0.703,0,1.301,0.199,1.793,0.598c0.469,0.375,0.703,0.938,0.703,1.688v2.18c3.211-0.656,6.645-1.594,10.301-2.813
			C242.394,73.999,242.991,73.87,243.577,73.87z"/>
	</g>
</g>
<g>
	<g>
		<path fill="#F39800" stroke="#40220F" stroke-width="5" stroke-miterlimit="10" d="M47.227,69.774c1.3-0.052,1.82,0.832,1.82,2.08
			c0,1.612-0.78,2.236-1.924,2.288c-9.881,0.572-23.609,0.937-34.218,1.196c-1.3,0.052-1.976-0.624-1.976-2.236
			c0-1.508,0.572-2.288,2.028-2.34c4.056-0.156,8.528-0.26,13.052-0.416c-0.104-1.612-0.156-3.328-0.156-4.681
			c-0.052-1.872,0.52-2.548,2.6-2.651c2.184-0.104,2.912,0.571,3.016,2.443c0.052,1.248,0.156,3.068,0.208,4.732
			C37.294,70.034,42.755,69.931,47.227,69.774z M15.506,66.706c-1.248,0.676-2.444,0.572-3.328-0.52c-0.832-1.04-0.937-2.08,0-2.756
			c3.952-2.809,9.152-5.929,12.792-8.581c-0.052-2.6-0.208-5.46-0.26-7.696c-0.052-1.611,0.52-2.496,2.756-2.6
			c2.496-0.156,3.172,0.52,3.172,2.288c0.052,2.6,0.052,4.628,0,7.644c4.524,2.133,12.533,5.408,16.277,7.125
			c0.936,0.416,1.248,1.508,0.468,2.912c-0.832,1.508-2.08,1.611-3.276,1.195c-3.38-1.144-11.544-4.939-15.809-6.76
			C24.658,61.506,18.99,64.834,15.506,66.706z M19.302,90.679c-1.664,0-2.652-1.3-2.808-3.016c-0.26-3.172-0.364-5.928-0.364-7.853
			c0-1.56,0.572-2.028,2.6-2.132c2.028-0.104,2.964,0.364,3.017,1.924c0.052,2.288,0.052,3.9,0.104,5.824
			c0,0.364,0.156,0.624,0.521,0.624c5.304-0.104,15.132-0.571,20.385-0.571c1.404,0,1.976,0.571,1.976,2.184
			c0,1.456-0.988,2.08-1.924,2.132C35.942,90.315,25.75,90.627,19.302,90.679z"/>
		<path fill="#F39800" stroke="#40220F" stroke-width="5" stroke-miterlimit="10" d="M73.643,46.686c0-1.56,0.884-2.185,2.808-2.185
			c1.924,0,2.652,0.677,2.652,2.028c0,6.501-0.312,16.381-0.52,23.142c-0.052,1.455-0.832,1.976-2.288,2.08
			c-4.524,0.26-15.081,0.728-17.785,0.728c-2.444,0-3.9-1.092-4.056-3.952c-0.26-5.148-0.676-14.457-0.884-21.32
			c-0.052-1.404,0.624-2.236,2.652-2.289c2.236-0.052,2.756,0.625,2.808,2.028c0.104,2.652,0.156,5.408,0.26,8.112
			c3.952-0.26,10.296-0.728,14.3-1.04C73.59,51.782,73.59,49.546,73.643,46.686z M59.446,59.79c0.104,2.912,0.26,5.668,0.364,8.061
			c1.924,0,10.713-0.416,12.688-0.521c0.521-0.052,0.988-0.26,0.988-0.987c0.052-2.912,0.052-5.305,0.104-7.593
			C69.638,59.062,63.086,59.53,59.446,59.79z M67.246,90.679c-1.664,0-2.704-1.3-2.808-3.016c-0.26-4.212-0.364-5.46-0.364-9.465
			c0-1.56,0.572-2.027,2.6-2.132c2.028-0.104,2.964,0.364,3.017,1.925c0.052,2.287,0.052,5.512,0.104,7.436
			c0,0.364,0.156,0.624,0.521,0.624c5.304-0.104,14.3-0.571,19.553-0.571c1.404,0,1.976,0.571,1.976,2.184
			c0,1.456-0.988,2.08-1.924,2.132C83.055,90.315,73.694,90.627,67.246,90.679z M88.619,76.95c-1.508-0.052-2.393-0.468-2.444-2.548
			c-0.104-3.224,0.052-18.2,0.156-25.948c0-1.873,0.728-2.601,2.808-2.601c1.872,0,2.756,0.884,2.704,2.756
			c-0.104,6.656-0.156,22.205-0.572,25.949C91.063,76.534,90.075,77.003,88.619,76.95z"/>
	</g>
	<g>
		<g>
			<path fill="#EA5514" d="M47.06,69.607c1.3-0.052,1.82,0.832,1.82,2.08c0,1.612-0.78,2.236-1.924,2.288
				c-9.881,0.572-23.609,0.937-34.218,1.196c-1.3,0.052-1.976-0.624-1.976-2.236c0-1.508,0.572-2.288,2.028-2.34
				c4.056-0.156,8.528-0.26,13.052-0.416c-0.104-1.612-0.156-3.328-0.156-4.681c-0.052-1.872,0.52-2.548,2.6-2.651
				c2.184-0.104,2.912,0.571,3.016,2.443c0.052,1.248,0.156,3.068,0.208,4.732C37.127,69.867,42.588,69.764,47.06,69.607z
				 M15.339,66.539c-1.248,0.676-2.444,0.572-3.328-0.52c-0.832-1.04-0.937-2.08,0-2.756c3.952-2.809,9.152-5.929,12.792-8.581
				c-0.052-2.6-0.208-5.46-0.26-7.696c-0.052-1.611,0.52-2.496,2.756-2.6c2.496-0.156,3.172,0.52,3.172,2.288
				c0.052,2.6,0.052,4.628,0,7.644c4.524,2.133,12.533,5.408,16.277,7.125c0.936,0.416,1.248,1.508,0.468,2.912
				c-0.832,1.508-2.08,1.611-3.276,1.195c-3.38-1.144-11.544-4.939-15.809-6.76C24.491,61.339,18.823,64.667,15.339,66.539z
				 M19.135,90.512c-1.664,0-2.652-1.3-2.808-3.016c-0.26-3.172-0.364-5.928-0.364-7.853c0-1.56,0.572-2.028,2.6-2.132
				c2.028-0.104,2.964,0.364,3.017,1.924c0.052,2.288,0.052,3.9,0.104,5.824c0,0.364,0.156,0.624,0.521,0.624
				c5.304-0.104,15.132-0.571,20.385-0.571c1.404,0,1.976,0.571,1.976,2.184c0,1.456-0.988,2.08-1.924,2.132
				C35.775,90.148,25.583,90.46,19.135,90.512z"/>
			<path fill="#EA5514" d="M73.476,46.519c0-1.56,0.884-2.185,2.808-2.185c1.924,0,2.652,0.677,2.652,2.028
				c0,6.501-0.312,16.381-0.52,23.142c-0.052,1.455-0.832,1.976-2.288,2.08c-4.524,0.26-15.081,0.728-17.785,0.728
				c-2.444,0-3.9-1.092-4.056-3.952c-0.26-5.148-0.676-14.457-0.884-21.32c-0.052-1.404,0.624-2.236,2.652-2.289
				c2.236-0.052,2.756,0.625,2.808,2.028c0.104,2.652,0.156,5.408,0.26,8.112c3.952-0.26,10.296-0.728,14.3-1.04
				C73.423,51.615,73.423,49.379,73.476,46.519z M59.279,59.623c0.104,2.912,0.26,5.668,0.364,8.061
				c1.924,0,10.713-0.416,12.688-0.521c0.521-0.052,0.988-0.26,0.988-0.987c0.052-2.912,0.052-5.305,0.104-7.593
				C69.471,58.895,62.919,59.363,59.279,59.623z M67.079,90.512c-1.664,0-2.704-1.3-2.808-3.016c-0.26-4.212-0.364-5.46-0.364-9.465
				c0-1.56,0.572-2.027,2.6-2.132c2.028-0.104,2.964,0.364,3.017,1.925c0.052,2.287,0.052,5.512,0.104,7.436
				c0,0.364,0.156,0.624,0.521,0.624c5.304-0.104,14.3-0.571,19.553-0.571c1.404,0,1.976,0.571,1.976,2.184
				c0,1.456-0.988,2.08-1.924,2.132C82.888,90.148,73.527,90.46,67.079,90.512z M88.452,76.783
				c-1.508-0.052-2.393-0.468-2.444-2.548c-0.104-3.224,0.052-18.2,0.156-25.948c0-1.873,0.728-2.601,2.808-2.601
				c1.872,0,2.756,0.884,2.704,2.756c-0.104,6.656-0.156,22.205-0.572,25.949C90.896,76.367,89.908,76.836,88.452,76.783z"/>
		</g>
	</g>
</g>
</svg>
