<?xml version="1.0" encoding="utf-8"?>
<!-- Generator: Adobe Illustrator 16.0.0, SVG Export Plug-In . SVG Version: 6.00 Build 0)  -->
<!DOCTYPE svg PUBLIC "-//W3C//DTD SVG 1.1//EN" "http://www.w3.org/Graphics/SVG/1.1/DTD/svg11.dtd">
<svg version="1.1" id="圖層_1" xmlns="http://www.w3.org/2000/svg" xmlns:xlink="http://www.w3.org/1999/xlink" x="0px" y="0px"
	 width="200px" height="100px" viewBox="0 0 200 100" enable-background="new 0 0 200 100" xml:space="preserve">
<g>
	<path fill="#6E3929" stroke="#621E15" stroke-width="0.5" stroke-miterlimit="10" d="M159.44,8.304c0,0-7.878-5.201-19.327,3.653
		c0,0-9.096,8.776-11.125,19.826c0,0-2.599,15.517,0.489,24.941c0,0,2.922,4.49,3.245,12.156c0,0,1.464,2.468,0.65,8.072
		c0,0,0.163,7.638,4.548,9.019c0,0,5.361,2.193,1.95-1.788c0,0-2.273-1.948-0.163-7.637c0,0-0.08,7.07,4.955,8.124
		c0,0,2.191,0.405,3.653-1.298c0,0,1.188-1.934-1.049-2.104c-0.103-0.006-0.214-0.009-0.332-0.009c-2.678,0-2.192-0.163-1.625-4.795
		c0,0,0.814-3.005,3.249-5.849c0,0-2.435-1.626-1.462-4.551c0,0,6.903,3.656,16.407,1.626c0,0,2.03-0.165,5.279-1.869
		c0,0-1.055,6.255,0.489,10.643c0,0,0.813,5.361-1.544,5.687c0,0-7.556,1.789-1.624,3.657c0,0,2.354,0.162,3.817-0.161
		c0,0-3.576,1.462,0.405,2.922c0,0,3.414,1.869,7.961-3.087c0,0,3.576-2.519,3.332-8.124c0,0-2.844-7.962-0.327-14.299
		c0,0,5.441,4.467,3.249,9.992c0,0,0.405,5.85,3.249-2.52c0,0,3.003-9.178,0.484-11.777c0,0-0.892-5.932,0.407-7.231
		c0,0,1.686-3.17,0.601-8.694c0,0-0.601-17.708-11.402-28.514C177.88,14.316,164.966,2.536,159.44,8.304z"/>
	<path fill="#444344" stroke="#6B2C19" stroke-miterlimit="10" d="M168.523,66.413c4.831-3.119,8.048-10.913,8.048-10.913
		c4.985-6.235,1.688-10.996,1.688-10.996c-2.252-5.744-3.859-9.764-3.859-9.764c-2.897-13.867-17.78-16.903-17.78-16.903
		s-21.872-0.574-21.632,26.75c0,0-0.562,16.74,12.062,22.071"/>
	<path fill="none" stroke="#651F16" stroke-width="0.5" stroke-miterlimit="10" d="M182.587,61.571c0,0,9.026-9.928,2.052-22.729
		c0,0-2.378-2.38-2.052-7.713c0,0-1.642-6.563-7.879-11.404c0,0-9.439-8.288-15.186-5.99"/>
	<path fill="none" stroke="#621E15" stroke-width="0.5" stroke-miterlimit="10" d="M160.18,11.026c0,0-13.54-2.956-23.385,6.809"/>
	<path fill="none" stroke="#6B2C19" stroke-width="0.5" stroke-miterlimit="10" d="M149.511,13.332c0,0-14.113,2.864-18.953,18.619"
		/>
	<path fill="none" stroke="#6B2C19" stroke-width="0.5" stroke-miterlimit="10" d="M160.589,11.355c0,0,11.659-2.954,19.291,12.39"
		/>
	<path fill="#5E2E23" d="M174.135,84.189c0,0,1.554-3.061-1.396-4.783c0,0-2.136-2.225-3.528-13.757c0,0,3.452-2.208,5.695-6.47
		c0,0-3.397,13.391,2.104,19.114c0,0,1.102,3.586,0.572,6.661C177.581,84.955,175.612,82.48,174.135,84.189z"/>
	<path fill="#5E2E23" d="M133.758,65.811c4.604,2.299,7.057,7.222,7.057,7.222c5.005-2.298,5.859,0.782,5.859,0.782l2.381-3.216
		c0,0-2.243-1.562-1.811-3.895c0,0-14.863-4.223-11.673-29.761l-1.156,0.969c0,0-1.641-5.743,0.902-9.6c0,0,2.79-3.162,1.478-7.447
		c0,0-9.287,10.483-8.83,26.977C127.964,47.842,129.737,63.804,133.758,65.811z"/>
	<path fill="#5E2E23" d="M189.598,41.415c0,0-3.739-3.997-4.313-12.531c0,0-2.134-8.781-7.878-13.622c0,0-1.112-1.112-1.212-2.565
		C176.194,12.696,187.79,20.386,189.598,41.415z"/>
	<path fill="#6E3929" stroke="#621E15" stroke-width="0.5" stroke-miterlimit="10" d="M139.828,76.547c0,0,0.404-2.354,0.987-3.515"
		/>
	<path fill="#6E3929" stroke="#621E15" stroke-width="0.5" stroke-miterlimit="10" d="M170.358,85.648c0,0,1.959-0.545,4.061-1.691"
		/>
	<path fill="#F7DBDE" d="M135.427,42.749c0.433-14.241,8.781-24.648,21.772-24.648c6.897,1.789,17.558,8.926,21.625,24.624
		c0,15.555-7.455,26.313-21.219,26.313C144.249,69.037,134.941,58.665,135.427,42.749z"/>
	<g>
		<g opacity="0.6">
			<g>
				<path fill="#E61673" d="M151.751,58.758c2.086,2.812,9.238,2.86,11.284-0.021c0.468-0.659-0.618-1.282-1.08-0.631
					c-1.425,2.008-7.641,2.021-9.125,0.021C152.355,57.487,151.27,58.109,151.751,58.758L151.751,58.758z"/>
			</g>
		</g>
		<path fill="#F7DBDE" d="M136.915,53.855c-2.863,0-5.813-2.306-5.813-4.943s1.549-6.223,4.307-3.776"/>
		<g>
			<g>
				<path d="M140.626,40.255c2.051-0.941,4.774-0.616,6.819,0.147c0.43,0.16,1.749-0.472,1.155-0.693
					c-2.613-0.976-5.945-1.226-8.542-0.034C139.14,40.097,139.985,40.549,140.626,40.255L140.626,40.255z"/>
			</g>
		</g>
		<g>
			<g>
				<path d="M166.274,40.432c2.056-0.941,4.777-0.617,6.824,0.15c0.424,0.158,1.743-0.466,1.158-0.686
					c-2.613-0.979-5.949-1.22-8.548-0.031C164.79,40.286,165.638,40.723,166.274,40.432L166.274,40.432z"/>
			</g>
		</g>
		
			<ellipse fill="#3E3A39" stroke="#000000" stroke-width="0.5" stroke-miterlimit="10" cx="170.585" cy="46.059" rx="3.092" ry="3.334"/>
		
			<ellipse fill="#3E3A39" stroke="#000000" stroke-width="0.5" stroke-miterlimit="10" cx="144.515" cy="45.756" rx="3.092" ry="3.333"/>
		<ellipse fill="#FFFFFF" cx="144.965" cy="44.319" rx="0.981" ry="1.058"/>
		<ellipse fill="#FFFFFF" cx="171.316" cy="45.002" rx="0.982" ry="1.058"/>
		<ellipse fill="#D6BEC3" cx="157.206" cy="54.241" rx="1.529" ry="1.424"/>
		
			<ellipse fill="#FBDFE3" stroke="#E3CED1" stroke-width="0.25" stroke-miterlimit="10" cx="157.213" cy="53.919" rx="1.353" ry="1.027"/>
		<g>
			<g>
				<path fill="#A91A4F" d="M152.075,58.568c1.909,2.573,8.767,2.613,10.636-0.021c0.188-0.264-0.247-0.513-0.432-0.252
					c-1.605,2.262-8.107,2.267-9.773,0.021C152.316,58.061,151.882,58.31,152.075,58.568L152.075,58.568z"/>
			</g>
		</g>
	</g>
	<path fill="#E0CBCD" d="M176.632,55.296c0,0,3.656-6.125-7.422-24.457c0,0-4.926-8.842-12.231-11.357c0,0-1.066-0.486,0-1.216
		c0,0,12.641-0.975,18.717,16.549C175.695,34.814,182.047,43.914,176.632,55.296z"/>
</g>
<g>
	<g>
		<path fill="none" stroke="#40220F" stroke-width="4" stroke-miterlimit="10" d="M124.645,67.584c0.492,0,0.93,0.146,1.313,0.438
			c0.383,0.201,0.574,0.611,0.574,1.23c-0.055,0.565-0.173,1.213-0.355,1.941h4.047c0.747,0,1.331,0.146,1.75,0.438
			c0.438,0.383,0.656,0.894,0.656,1.531c0,0.347-0.019,0.629-0.055,0.848c-0.328,1.678-0.775,3.19-1.34,4.539
			c-0.164,0.438-0.401,0.721-0.711,0.848c-0.237,0.164-0.629,0.246-1.176,0.246c-0.401,0-0.775-0.173-1.121-0.52
			c-0.091-0.055-0.155-0.146-0.191-0.273v1.914c0,1.203,0.237,2.416,0.711,3.637c0.565,1.367,1.649,2.953,3.254,4.758
			c0.419,0.328,0.629,0.865,0.629,1.613c0,0.564-0.21,1.002-0.629,1.313c-0.456,0.383-0.976,0.574-1.559,0.574
			c-0.201-0.037-0.365-0.082-0.492-0.137c-0.146-0.055-0.283-0.155-0.41-0.301c-0.675-0.639-1.65-2.151-2.926-4.539
			c-0.109-0.2-0.21-0.301-0.301-0.301c-0.073,0-0.137,0.082-0.191,0.246c-0.857,1.786-1.96,3.381-3.309,4.785
			c-0.128,0.164-0.392,0.246-0.793,0.246c-0.602-0.037-1.094-0.292-1.477-0.766c-0.055-0.092-0.101-0.164-0.137-0.219
			c-0.146,0.055-0.301,0.082-0.465,0.082h-9.707c-1.75,0-2.625-0.866-2.625-2.598V70.975c-0.073-0.055-0.137-0.1-0.191-0.137
			c-0.255-0.2-0.383-0.592-0.383-1.176c0-0.583,0.127-0.984,0.383-1.203c0.237-0.2,0.629-0.301,1.176-0.301h11.566
			c0.565,0,0.966,0.109,1.203,0.328c0.237,0.183,0.355,0.574,0.355,1.176c0,0.475-0.101,0.83-0.301,1.066
			c-0.273,0.311-0.693,0.465-1.258,0.465h-9.297v16.98c0,0.419,0.219,0.629,0.656,0.629h8.422c0.419,0,0.711,0.146,0.875,0.438
			c1.367-1.513,2.315-2.898,2.844-4.156c0.583-1.367,0.875-2.725,0.875-4.074v-2.926c0-0.547,0.164-0.957,0.492-1.23
			c0.292-0.255,0.72-0.383,1.285-0.383c0.583,0,1.021,0.109,1.313,0.328c0.2,0.183,0.328,0.465,0.383,0.848
			c0.036-0.091,0.063-0.173,0.082-0.246c0.62-1.641,0.93-2.579,0.93-2.816c0-0.146-0.101-0.219-0.301-0.219h-3.445
			c-0.565,1.787-1.103,3.218-1.613,4.293c-0.183,0.492-0.693,0.738-1.531,0.738c-0.383,0-0.775-0.182-1.176-0.547
			c-0.292-0.2-0.438-0.564-0.438-1.094c0-0.455,0.137-0.975,0.41-1.559c0.893-2.15,1.659-4.693,2.297-7.629
			C123.405,67.912,123.879,67.584,124.645,67.584z M112.833,80.08h1.996c0.93,0,1.395,0.465,1.395,1.395v4.703
			c0,0.948-0.465,1.422-1.395,1.422h-1.996c-0.93,0-1.395-0.474-1.395-1.422v-4.703C111.438,80.545,111.903,80.08,112.833,80.08z
			 M114.145,72.533h4.375c1.094,0,1.641,0.547,1.641,1.641v3.172c0,1.076-0.547,1.613-1.641,1.613h-4.375
			c-1.076,0-1.613-0.537-1.613-1.613v-3.172C112.532,73.08,113.069,72.533,114.145,72.533z M114.036,85.303
			c0.219,0,0.328-0.109,0.328-0.328v-2.297c0-0.2-0.109-0.301-0.328-0.301h-0.41c-0.219,0-0.328,0.101-0.328,0.301v2.297
			c0,0.219,0.109,0.328,0.328,0.328H114.036z M117.125,76.771c0.273,0,0.41-0.137,0.41-0.41v-1.203c0-0.31-0.137-0.465-0.41-0.465
			h-1.531c-0.31,0-0.465,0.155-0.465,0.465v1.203c0,0.273,0.155,0.41,0.465,0.41H117.125z M118.329,80.08h1.969
			c0.948,0,1.422,0.465,1.422,1.395v4.703c0,0.948-0.474,1.422-1.422,1.422h-1.969c-0.948,0-1.422-0.474-1.422-1.422v-4.703
			C116.907,80.545,117.38,80.08,118.329,80.08z M119.532,85.303c0.2,0,0.301-0.109,0.301-0.328v-2.297
			c0-0.2-0.101-0.301-0.301-0.301h-0.438c-0.237,0-0.355,0.101-0.355,0.301v2.297c0,0.219,0.118,0.328,0.355,0.328H119.532z"/>
		<path fill="none" stroke="#40220F" stroke-width="4" stroke-miterlimit="10" d="M158.82,68.568c1.293,0,1.942,0.629,1.942,1.887
			v4.484c0,1.531-0.684,2.297-2.051,2.297h-15.559c0,4.74-0.283,8.131-0.848,10.172c-0.292,1.877-0.812,3.326-1.559,4.348
			c-0.31,0.528-0.812,0.793-1.504,0.793c-0.802,0-1.322-0.155-1.559-0.465c-0.365-0.237-0.547-0.639-0.547-1.203
			c0-0.383,0.082-0.775,0.246-1.176c0.656-1.439,1.176-3.235,1.559-5.387c0.328-2.041,0.492-4.447,0.492-7.219v-6.535
			c0-1.33,0.802-1.996,2.406-1.996H158.82z M143.151,74.064h13.372c0.346,0,0.52-0.154,0.52-0.465v-1.422
			c0-0.273-0.102-0.41-0.301-0.41h-13.235c-0.237,0-0.355,0.137-0.355,0.41V74.064z M158.355,79.068c0.547,0,0.992,0.237,1.34,0.711
			c0.291,0.219,0.438,0.711,0.438,1.477c0,0.529-0.266,0.967-0.793,1.313c-1.66,0.639-3.527,1.194-5.605,1.668
			c-1.605,0.365-3.2,0.675-4.786,0.93v1.996c0,1.186,0.592,1.777,1.777,1.777h6.016c0.363,0,0.619-0.146,0.766-0.438
			c0.199-0.419,0.336-1.002,0.41-1.75c0.199-0.528,0.746-0.82,1.641-0.875c0.602,0.019,1.111,0.174,1.532,0.465
			c0.346,0.292,0.527,0.711,0.547,1.258c0,1.313-0.283,2.388-0.848,3.227c-0.53,0.911-1.586,1.449-3.172,1.613h-8.559
			c-1.404,0-2.434-0.338-3.09-1.012c-0.565-0.529-0.848-1.44-0.848-2.734v-8.832c0-0.492,0.155-0.93,0.465-1.313
			c0.328-0.31,0.802-0.465,1.422-0.465c0.547,0,1.012,0.155,1.395,0.465c0.364,0.292,0.547,0.729,0.547,1.313v1.695
			c2.497-0.51,5.168-1.239,8.012-2.188C157.433,79.169,157.898,79.068,158.355,79.068z"/>
	</g>
	<g>
		<path fill="#EA5514" d="M123.645,66.251c0.492,0,0.93,0.146,1.313,0.438c0.383,0.201,0.574,0.611,0.574,1.23
			c-0.055,0.565-0.173,1.213-0.355,1.941h4.047c0.747,0,1.331,0.146,1.75,0.438c0.438,0.383,0.656,0.894,0.656,1.531
			c0,0.347-0.019,0.629-0.055,0.848c-0.328,1.678-0.775,3.19-1.34,4.539c-0.164,0.438-0.401,0.721-0.711,0.848
			c-0.237,0.164-0.629,0.246-1.176,0.246c-0.401,0-0.775-0.173-1.121-0.52c-0.091-0.055-0.155-0.146-0.191-0.273v1.914
			c0,1.203,0.237,2.416,0.711,3.637c0.565,1.367,1.649,2.953,3.254,4.758c0.419,0.328,0.629,0.865,0.629,1.613
			c0,0.564-0.21,1.002-0.629,1.313c-0.456,0.383-0.976,0.574-1.559,0.574c-0.201-0.037-0.365-0.082-0.492-0.137
			c-0.146-0.055-0.283-0.155-0.41-0.301c-0.675-0.639-1.65-2.151-2.926-4.539c-0.109-0.2-0.21-0.301-0.301-0.301
			c-0.073,0-0.137,0.082-0.191,0.246c-0.857,1.786-1.96,3.381-3.309,4.785c-0.128,0.164-0.392,0.246-0.793,0.246
			c-0.602-0.037-1.094-0.292-1.477-0.766c-0.055-0.092-0.101-0.164-0.137-0.219c-0.146,0.055-0.301,0.082-0.465,0.082h-9.707
			c-1.75,0-2.625-0.866-2.625-2.598V69.642c-0.073-0.055-0.137-0.1-0.191-0.137c-0.255-0.2-0.383-0.592-0.383-1.176
			c0-0.583,0.127-0.984,0.383-1.203c0.237-0.2,0.629-0.301,1.176-0.301h11.566c0.565,0,0.966,0.109,1.203,0.328
			c0.237,0.183,0.355,0.574,0.355,1.176c0,0.475-0.101,0.83-0.301,1.066c-0.273,0.311-0.693,0.465-1.258,0.465h-9.297v16.98
			c0,0.419,0.219,0.629,0.656,0.629h8.422c0.419,0,0.711,0.146,0.875,0.438c1.367-1.513,2.315-2.898,2.844-4.156
			c0.583-1.367,0.875-2.725,0.875-4.074v-2.926c0-0.547,0.164-0.957,0.492-1.23c0.292-0.255,0.72-0.383,1.285-0.383
			c0.583,0,1.021,0.109,1.313,0.328c0.2,0.183,0.328,0.465,0.383,0.848c0.036-0.091,0.063-0.173,0.082-0.246
			c0.62-1.641,0.93-2.579,0.93-2.816c0-0.146-0.101-0.219-0.301-0.219h-3.445c-0.565,1.787-1.103,3.218-1.613,4.293
			c-0.183,0.492-0.693,0.738-1.531,0.738c-0.383,0-0.775-0.182-1.176-0.547c-0.292-0.2-0.438-0.564-0.438-1.094
			c0-0.455,0.137-0.975,0.41-1.559c0.893-2.15,1.659-4.693,2.297-7.629C122.405,66.579,122.879,66.251,123.645,66.251z
			 M111.832,78.747h1.996c0.93,0,1.395,0.465,1.395,1.395v4.703c0,0.948-0.465,1.422-1.395,1.422h-1.996
			c-0.93,0-1.395-0.474-1.395-1.422v-4.703C110.438,79.212,110.902,78.747,111.832,78.747z M113.145,71.2h4.375
			c1.094,0,1.641,0.547,1.641,1.641v3.172c0,1.076-0.547,1.613-1.641,1.613h-4.375c-1.076,0-1.613-0.537-1.613-1.613v-3.172
			C111.531,71.747,112.069,71.2,113.145,71.2z M113.035,83.97c0.219,0,0.328-0.109,0.328-0.328v-2.297
			c0-0.2-0.109-0.301-0.328-0.301h-0.41c-0.219,0-0.328,0.101-0.328,0.301v2.297c0,0.219,0.109,0.328,0.328,0.328H113.035z
			 M116.125,75.438c0.273,0,0.41-0.137,0.41-0.41v-1.203c0-0.31-0.137-0.465-0.41-0.465h-1.531c-0.31,0-0.465,0.155-0.465,0.465
			v1.203c0,0.273,0.155,0.41,0.465,0.41H116.125z M117.328,78.747h1.969c0.948,0,1.422,0.465,1.422,1.395v4.703
			c0,0.948-0.474,1.422-1.422,1.422h-1.969c-0.948,0-1.422-0.474-1.422-1.422v-4.703C115.906,79.212,116.38,78.747,117.328,78.747z
			 M118.531,83.97c0.2,0,0.301-0.109,0.301-0.328v-2.297c0-0.2-0.101-0.301-0.301-0.301h-0.438c-0.237,0-0.355,0.101-0.355,0.301
			v2.297c0,0.219,0.118,0.328,0.355,0.328H118.531z"/>
		<path fill="#EA5514" d="M157.819,67.235c1.293,0,1.941,0.629,1.941,1.887v4.484c0,1.531-0.684,2.297-2.051,2.297h-15.559
			c0,4.74-0.283,8.131-0.848,10.172c-0.292,1.877-0.812,3.326-1.559,4.348c-0.31,0.528-0.812,0.793-1.504,0.793
			c-0.802,0-1.322-0.155-1.559-0.465c-0.365-0.237-0.547-0.639-0.547-1.203c0-0.383,0.082-0.775,0.246-1.176
			c0.656-1.439,1.176-3.235,1.559-5.387c0.328-2.041,0.492-4.447,0.492-7.219v-6.535c0-1.33,0.802-1.996,2.406-1.996H157.819z
			 M142.151,72.731h13.372c0.346,0,0.52-0.154,0.52-0.465v-1.422c0-0.273-0.102-0.41-0.301-0.41h-13.235
			c-0.237,0-0.355,0.137-0.355,0.41V72.731z M157.354,77.735c0.547,0,0.992,0.237,1.34,0.711c0.291,0.219,0.438,0.711,0.438,1.477
			c0,0.529-0.266,0.967-0.793,1.313c-1.66,0.639-3.527,1.194-5.605,1.668c-1.605,0.365-3.2,0.675-4.786,0.93v1.996
			c0,1.186,0.592,1.777,1.777,1.777h6.016c0.363,0,0.619-0.146,0.766-0.438c0.199-0.419,0.336-1.002,0.41-1.75
			c0.199-0.528,0.746-0.82,1.641-0.875c0.602,0.019,1.111,0.174,1.531,0.465c0.346,0.292,0.527,0.711,0.547,1.258
			c0,1.313-0.283,2.388-0.848,3.227c-0.529,0.911-1.586,1.449-3.172,1.613h-8.559c-1.404,0-2.434-0.338-3.09-1.012
			c-0.565-0.529-0.848-1.44-0.848-2.734v-8.832c0-0.492,0.155-0.93,0.465-1.313c0.328-0.31,0.802-0.465,1.422-0.465
			c0.547,0,1.012,0.155,1.395,0.465c0.364,0.292,0.547,0.729,0.547,1.313v1.695c2.497-0.51,5.168-1.239,8.012-2.188
			C156.433,77.836,156.897,77.735,157.354,77.735z"/>
	</g>
</g>
<g>
	<g>
		<path fill="none" stroke="#40220F" stroke-width="5" stroke-miterlimit="10" d="M47.483,70.062c1.3-0.052,1.82,0.832,1.82,2.08
			c0,1.612-0.78,2.236-1.924,2.288c-9.881,0.572-23.609,0.937-34.218,1.196c-1.3,0.052-1.976-0.624-1.976-2.236
			c0-1.508,0.572-2.288,2.028-2.34c4.056-0.156,8.528-0.26,13.052-0.416c-0.104-1.612-0.156-3.328-0.156-4.681
			c-0.052-1.872,0.52-2.548,2.6-2.651c2.184-0.104,2.912,0.571,3.016,2.443c0.052,1.248,0.156,3.068,0.208,4.732
			C37.551,70.321,43.011,70.218,47.483,70.062z M15.762,66.993c-1.248,0.676-2.444,0.572-3.328-0.52c-0.832-1.04-0.937-2.08,0-2.756
			c3.952-2.809,9.152-5.929,12.792-8.581c-0.052-2.6-0.208-5.46-0.26-7.696c-0.052-1.611,0.52-2.496,2.756-2.6
			c2.496-0.156,3.172,0.52,3.172,2.288c0.052,2.6,0.052,4.628,0,7.644c4.524,2.133,12.533,5.408,16.277,7.125
			c0.936,0.416,1.248,1.508,0.468,2.912c-0.832,1.508-2.08,1.611-3.276,1.195c-3.38-1.144-11.544-4.939-15.809-6.76
			C24.915,61.793,19.246,65.121,15.762,66.993z M19.558,90.966c-1.664,0-2.652-1.3-2.808-3.016c-0.26-3.172-0.364-5.928-0.364-7.853
			c0-1.56,0.572-2.028,2.6-2.132c2.028-0.104,2.964,0.364,3.017,1.924c0.052,2.288,0.052,3.9,0.104,5.824
			c0,0.364,0.156,0.624,0.521,0.624c5.304-0.104,15.132-0.571,20.385-0.571c1.404,0,1.976,0.571,1.976,2.184
			c0,1.456-0.988,2.08-1.924,2.132C36.199,90.603,26.006,90.914,19.558,90.966z"/>
		<path fill="none" stroke="#40220F" stroke-width="5" stroke-miterlimit="10" d="M73.899,46.973c0-1.56,0.884-2.185,2.808-2.185
			c1.924,0,2.652,0.677,2.652,2.028c0,6.501-0.312,16.381-0.52,23.142c-0.052,1.455-0.832,1.976-2.288,2.08
			c-4.524,0.26-15.081,0.728-17.785,0.728c-2.444,0-3.9-1.092-4.056-3.952c-0.26-5.148-0.676-14.457-0.884-21.32
			c-0.052-1.404,0.624-2.236,2.652-2.289c2.236-0.052,2.756,0.625,2.808,2.028c0.104,2.652,0.156,5.408,0.26,8.112
			c3.952-0.26,10.296-0.728,14.3-1.04C73.847,52.069,73.847,49.833,73.899,46.973z M59.702,60.077
			c0.104,2.912,0.26,5.668,0.364,8.061c1.924,0,10.713-0.416,12.688-0.521c0.521-0.052,0.988-0.26,0.988-0.987
			c0.052-2.912,0.052-5.305,0.104-7.593C69.895,59.349,63.342,59.817,59.702,60.077z M67.502,90.966c-1.664,0-2.704-1.3-2.808-3.016
			c-0.26-4.212-0.364-5.46-0.364-9.465c0-1.56,0.572-2.027,2.6-2.132c2.028-0.104,2.964,0.364,3.017,1.925
			c0.052,2.287,0.052,5.512,0.104,7.436c0,0.364,0.156,0.624,0.521,0.624c5.304-0.104,14.3-0.571,19.553-0.571
			c1.404,0,1.976,0.571,1.976,2.184c0,1.456-0.988,2.08-1.924,2.132C83.311,90.603,73.951,90.914,67.502,90.966z M88.875,77.237
			c-1.508-0.052-2.393-0.468-2.444-2.548c-0.104-3.224,0.052-18.2,0.156-25.948c0-1.873,0.728-2.601,2.808-2.601
			c1.872,0,2.756,0.884,2.704,2.756c-0.104,6.656-0.156,22.205-0.572,25.949C91.319,76.821,90.332,77.29,88.875,77.237z"/>
	</g>
	<g>
		<path fill="#EA5514" d="M47.483,69.607c1.3-0.052,1.82,0.832,1.82,2.08c0,1.612-0.78,2.236-1.924,2.288
			c-9.881,0.572-23.609,0.937-34.218,1.196c-1.3,0.052-1.976-0.624-1.976-2.236c0-1.508,0.572-2.288,2.028-2.34
			c4.056-0.156,8.528-0.26,13.052-0.416c-0.104-1.612-0.156-3.328-0.156-4.681c-0.052-1.872,0.52-2.548,2.6-2.651
			c2.184-0.104,2.912,0.571,3.016,2.443c0.052,1.248,0.156,3.068,0.208,4.732C37.551,69.867,43.011,69.764,47.483,69.607z
			 M15.762,66.539c-1.248,0.676-2.444,0.572-3.328-0.52c-0.832-1.04-0.937-2.08,0-2.756c3.952-2.809,9.152-5.929,12.792-8.581
			c-0.052-2.6-0.208-5.46-0.26-7.696c-0.052-1.611,0.52-2.496,2.756-2.6c2.496-0.156,3.172,0.52,3.172,2.288
			c0.052,2.6,0.052,4.628,0,7.644c4.524,2.133,12.533,5.408,16.277,7.125c0.936,0.416,1.248,1.508,0.468,2.912
			c-0.832,1.508-2.08,1.611-3.276,1.195c-3.38-1.144-11.544-4.939-15.809-6.76C24.915,61.339,19.246,64.667,15.762,66.539z
			 M19.558,90.512c-1.664,0-2.652-1.3-2.808-3.016c-0.26-3.172-0.364-5.928-0.364-7.853c0-1.56,0.572-2.028,2.6-2.132
			c2.028-0.104,2.964,0.364,3.017,1.924c0.052,2.288,0.052,3.9,0.104,5.824c0,0.364,0.156,0.624,0.521,0.624
			c5.304-0.104,15.132-0.571,20.385-0.571c1.404,0,1.976,0.571,1.976,2.184c0,1.456-0.988,2.08-1.924,2.132
			C36.199,90.148,26.006,90.46,19.558,90.512z"/>
		<path fill="#EA5514" d="M73.899,46.519c0-1.56,0.884-2.185,2.808-2.185c1.924,0,2.652,0.677,2.652,2.028
			c0,6.501-0.312,16.381-0.52,23.142c-0.052,1.455-0.832,1.976-2.288,2.08c-4.524,0.26-15.081,0.728-17.785,0.728
			c-2.444,0-3.9-1.092-4.056-3.952c-0.26-5.148-0.676-14.457-0.884-21.32c-0.052-1.404,0.624-2.236,2.652-2.289
			c2.236-0.052,2.756,0.625,2.808,2.028c0.104,2.652,0.156,5.408,0.26,8.112c3.952-0.26,10.296-0.728,14.3-1.04
			C73.847,51.615,73.847,49.379,73.899,46.519z M59.702,59.623c0.104,2.912,0.26,5.668,0.364,8.061
			c1.924,0,10.713-0.416,12.688-0.521c0.521-0.052,0.988-0.26,0.988-0.987c0.052-2.912,0.052-5.305,0.104-7.593
			C69.895,58.895,63.342,59.363,59.702,59.623z M67.502,90.512c-1.664,0-2.704-1.3-2.808-3.016c-0.26-4.212-0.364-5.46-0.364-9.465
			c0-1.56,0.572-2.027,2.6-2.132c2.028-0.104,2.964,0.364,3.017,1.925c0.052,2.287,0.052,5.512,0.104,7.436
			c0,0.364,0.156,0.624,0.521,0.624c5.304-0.104,14.3-0.571,19.553-0.571c1.404,0,1.976,0.571,1.976,2.184
			c0,1.456-0.988,2.08-1.924,2.132C83.311,90.148,73.951,90.46,67.502,90.512z M88.875,76.783c-1.508-0.052-2.393-0.468-2.444-2.548
			c-0.104-3.224,0.052-18.2,0.156-25.948c0-1.873,0.728-2.601,2.808-2.601c1.872,0,2.756,0.884,2.704,2.756
			c-0.104,6.656-0.156,22.205-0.572,25.949C91.319,76.367,90.332,76.836,88.875,76.783z"/>
	</g>
</g>
</svg>
