<?xml version="1.0" encoding="utf-8"?>
<!-- Generator: Adobe Illustrator 16.0.0, SVG Export Plug-In . SVG Version: 6.00 Build 0)  -->
<!DOCTYPE svg PUBLIC "-//W3C//DTD SVG 1.1//EN" "http://www.w3.org/Graphics/SVG/1.1/DTD/svg11.dtd">
<svg version="1.1" id="圖層_1" xmlns="http://www.w3.org/2000/svg" xmlns:xlink="http://www.w3.org/1999/xlink" x="0px" y="0px"
	 width="300px" height="100px" viewBox="0 0 300 100" enable-background="new 0 0 300 100" xml:space="preserve">
<g>
	<path fill="#6E3929" stroke="#621E15" stroke-width="0.5" stroke-miterlimit="10" d="M159.211,5.164c0,0-8.819-5.822-21.637,4.09
		c0,0-10.183,9.825-12.455,22.195c0,0-2.909,17.37,0.547,27.923c0,0,3.271,5.026,3.633,13.608c0,0,1.64,2.762,0.728,9.036
		c0,0,0.182,8.551,5.092,10.097c0,0,6.001,2.455,2.182-2.001c0,0-2.545-2.182-0.182-8.55c0,0-0.089,7.915,5.547,9.095
		c0,0,2.453,0.454,4.09-1.454c0,0,1.33-2.164-1.175-2.354c-0.116-0.006-0.239-0.009-0.372-0.009c-2.998,0-2.454-0.184-1.819-5.368
		c0,0,0.912-3.364,3.637-6.548c0,0-2.725-1.82-1.636-5.094c0,0,7.728,4.093,18.366,1.82c0,0,2.272-0.186,5.907-2.092
		c0,0-1.181,7.001,0.547,11.913c0,0,0.91,6.002-1.728,6.366c0,0-8.454,2.003-1.817,4.094c0,0,2.636,0.182,4.272-0.179
		c0,0-4.002,1.636,0.454,3.27c0,0,3.82,2.094,8.912-3.455c0,0,4.004-2.821,3.731-9.096c0,0-3.185-8.914-0.367-16.007
		c0,0,6.092,5,3.638,11.187c0,0,0.454,6.548,3.637-2.821c0,0,3.362-10.275,0.543-13.185c0,0-0.999-6.64,0.456-8.096
		c0,0,1.887-3.548,0.672-9.733c0,0-0.672-19.823-12.767-31.921C179.848,11.896,165.395-1.293,159.211,5.164z"/>
	<path fill="#444344" stroke="#6B2C19" stroke-miterlimit="10" d="M169.376,70.217c5.405-3.49,9.006-12.216,9.006-12.216
		c5.583-6.98,1.891-12.311,1.891-12.311c-2.521-6.431-4.32-10.931-4.32-10.931c-3.244-15.523-19.899-18.923-19.899-18.923
		s-24.486-0.642-24.217,29.946c0,0-0.628,18.74,13.503,24.709"/>
	<path fill="none" stroke="#651F16" stroke-width="0.5" stroke-miterlimit="10" d="M185.119,64.797c0,0,10.104-11.113,2.296-25.443
		c0,0-2.661-2.665-2.296-8.636c0,0-1.837-7.348-8.822-12.768c0,0-10.563-9.276-16.995-6.705"/>
	<path fill="none" stroke="#621E15" stroke-width="0.5" stroke-miterlimit="10" d="M160.039,8.213c0,0-15.157-3.31-26.179,7.622"/>
	<path fill="none" stroke="#6B2C19" stroke-width="0.5" stroke-miterlimit="10" d="M148.096,10.794c0,0-15.799,3.206-21.218,20.843"
		/>
	<path fill="none" stroke="#6B2C19" stroke-width="0.5" stroke-miterlimit="10" d="M160.497,8.581c0,0,13.047-3.307,21.59,13.869"/>
	<path fill="#5E2E23" d="M175.656,90.118c0,0,1.739-3.426-1.564-5.354c0,0-2.389-2.49-3.947-15.4c0,0,3.862-2.472,6.374-7.243
		c0,0-3.804,14.99,2.354,21.397c0,0,1.232,4.015,0.64,7.458C179.513,90.976,177.31,88.204,175.656,90.118z"/>
	<path fill="#5E2E23" d="M130.46,69.543c5.154,2.574,7.9,8.085,7.9,8.085c5.604-2.571,6.559,0.876,6.559,0.876l2.666-3.602
		c0,0-2.511-1.747-2.027-4.358c0,0-16.639-4.728-13.068-33.317l-1.294,1.085c0,0-1.837-6.431,1.01-10.747
		c0,0,3.123-3.541,1.654-8.338c0,0-10.397,11.737-9.885,30.201C123.975,49.428,125.959,67.298,130.46,69.543z"/>
	<path fill="#5E2E23" d="M192.967,42.232c0,0-4.186-4.475-4.829-14.028c0,0-2.388-9.83-8.82-15.25c0,0-1.244-1.245-1.356-2.873
		C177.961,10.081,190.943,18.689,192.967,42.232z"/>
	<path fill="#6E3929" stroke="#621E15" stroke-width="0.5" stroke-miterlimit="10" d="M137.255,81.563c0,0,0.453-2.635,1.105-3.935"
		/>
	<path fill="#6E3929" stroke="#621E15" stroke-width="0.5" stroke-miterlimit="10" d="M171.43,91.753c0,0,2.191-0.611,4.544-1.895"
		/>
	<path fill="#F7DBDE" d="M132.329,43.727c0.485-15.944,9.831-27.594,24.374-27.594c7.72,2.002,19.649,9.992,24.204,27.566
		c0,17.412-8.346,29.456-23.75,29.456C142.205,73.155,131.784,61.543,132.329,43.727z"/>
	<g>
		<g opacity="0.6">
			<g>
				<path fill="#E61673" d="M150.668,61.61c2.299,3.102,10.249,3.15,12.502-0.024c0.468-0.659-0.617-1.282-1.079-0.631
					c-1.63,2.297-8.647,2.313-10.344,0.024C151.273,60.34,150.187,60.962,150.668,61.61L150.668,61.61z"/>
			</g>
		</g>
		<path fill="#F7DBDE" d="M133.994,56.16c-3.205,0-6.507-2.581-6.507-5.534s1.735-6.966,4.821-4.229"/>
		<g>
			<g>
				<path d="M138.115,40.899c2.33-1.068,5.413-0.71,7.737,0.158c0.43,0.16,1.749-0.472,1.155-0.693
					c-2.893-1.079-6.583-1.364-9.46-0.045C136.628,40.741,137.474,41.193,138.115,40.899L138.115,40.899z"/>
			</g>
		</g>
		<g>
			<g>
				<path d="M166.825,41.098c2.333-1.068,5.415-0.711,7.74,0.161c0.423,0.158,1.743-0.466,1.157-0.686
					c-2.892-1.084-6.586-1.358-9.462-0.042C165.341,40.953,166.189,41.389,166.825,41.098L166.825,41.098z"/>
			</g>
		</g>
		<path fill="#3E3A39" stroke="#000000" stroke-width="0.5" stroke-miterlimit="10" d="M175.144,47.432
			c0,2.058-1.55,3.731-3.462,3.731c-1.912,0-3.459-1.674-3.459-3.731c0-2.062,1.547-3.732,3.459-3.732
			C173.594,43.699,175.144,45.37,175.144,47.432z"/>
		
			<ellipse fill="#3E3A39" stroke="#000000" stroke-width="0.5" stroke-miterlimit="10" cx="142.502" cy="47.094" rx="3.461" ry="3.73"/>
		<ellipse fill="#FFFFFF" cx="143.006" cy="45.483" rx="1.098" ry="1.184"/>
		<ellipse fill="#FFFFFF" cx="172.5" cy="46.247" rx="1.099" ry="1.186"/>
		<ellipse fill="#D6BEC3" cx="156.71" cy="56.591" rx="1.712" ry="1.595"/>
		
			<ellipse fill="#FBDFE3" stroke="#E3CED1" stroke-width="0.25" stroke-miterlimit="10" cx="156.719" cy="56.23" rx="1.515" ry="1.151"/>
		<g>
			<g>
				<path fill="#A91A4F" d="M150.992,61.421c2.122,2.862,9.776,2.904,11.854-0.024c0.187-0.264-0.247-0.513-0.432-0.252
					c-1.811,2.551-9.113,2.558-10.991,0.024C151.234,60.913,150.799,61.162,150.992,61.421L150.992,61.421z"/>
			</g>
		</g>
	</g>
	<path fill="#E0CBCD" d="M178.451,57.771c0,0,4.095-6.855-8.307-27.38c0,0-5.512-9.897-13.689-12.714c0,0-1.194-0.544,0-1.36
		c0,0,14.146-1.092,20.946,18.525C177.402,34.843,184.515,45.03,178.451,57.771z"/>
</g>
<g>
	<g>
		<path fill="none" stroke="#40220F" stroke-width="4" stroke-miterlimit="10" d="M235.236,53.146c0.813,0,1.536,0.241,2.169,0.724
			c0.633,0.331,0.949,1.009,0.949,2.033c-0.091,0.934-0.287,2.004-0.588,3.208h6.688c1.235,0,2.199,0.241,2.893,0.724
			c0.723,0.632,1.084,1.476,1.084,2.53c0,0.572-0.03,1.039-0.09,1.4c-0.542,2.772-1.281,5.272-2.214,7.502
			c-0.271,0.723-0.663,1.19-1.176,1.4c-0.392,0.271-1.039,0.407-1.942,0.407c-0.663,0-1.281-0.286-1.854-0.859
			c-0.15-0.09-0.256-0.24-0.315-0.451v3.163c0,1.988,0.391,3.992,1.175,6.01c0.933,2.26,2.726,4.881,5.377,7.863
			c0.692,0.542,1.039,1.43,1.039,2.666c0,0.933-0.347,1.656-1.039,2.169c-0.753,0.633-1.611,0.948-2.575,0.948
			c-0.332-0.061-0.604-0.135-0.813-0.226c-0.242-0.09-0.468-0.256-0.678-0.497c-1.115-1.055-2.728-3.555-4.836-7.501
			c-0.181-0.331-0.347-0.497-0.497-0.497c-0.12,0-0.226,0.136-0.316,0.406c-1.416,2.952-3.238,5.588-5.468,7.908
			c-0.211,0.271-0.647,0.406-1.31,0.406c-0.994-0.061-1.808-0.481-2.44-1.265c-0.091-0.151-0.166-0.271-0.227-0.361
			c-0.241,0.09-0.497,0.135-0.768,0.135h-16.042c-2.893,0-4.338-1.431-4.338-4.292V58.749c-0.121-0.091-0.227-0.165-0.316-0.226
			c-0.423-0.331-0.633-0.979-0.633-1.943c0-0.964,0.21-1.627,0.633-1.988c0.391-0.331,1.039-0.497,1.942-0.497h19.115
			c0.934,0,1.597,0.181,1.988,0.542c0.392,0.302,0.588,0.949,0.588,1.943c0,0.783-0.166,1.371-0.497,1.763
			c-0.452,0.512-1.146,0.768-2.079,0.768h-15.364v28.063c0,0.692,0.361,1.039,1.085,1.039h13.918c0.692,0,1.175,0.241,1.446,0.723
			c2.259-2.5,3.825-4.79,4.699-6.868c0.964-2.26,1.446-4.504,1.446-6.733v-4.835c0-0.903,0.271-1.582,0.813-2.033
			c0.481-0.422,1.189-0.633,2.123-0.633c0.964,0,1.688,0.181,2.169,0.542c0.332,0.302,0.543,0.769,0.633,1.401
			c0.061-0.15,0.105-0.286,0.136-0.407c1.023-2.711,1.536-4.263,1.536-4.654c0-0.24-0.166-0.361-0.497-0.361h-5.693
			c-0.935,2.953-1.823,5.317-2.666,7.095c-0.302,0.813-1.146,1.22-2.53,1.22c-0.633,0-1.281-0.301-1.943-0.903
			c-0.482-0.331-0.723-0.934-0.723-1.808c0-0.753,0.226-1.611,0.678-2.576c1.476-3.555,2.74-7.757,3.796-12.607
			C233.188,53.688,233.971,53.146,235.236,53.146z M215.715,73.797h3.299c1.536,0,2.305,0.769,2.305,2.305v7.772
			c0,1.566-0.769,2.35-2.305,2.35h-3.299c-1.536,0-2.305-0.783-2.305-2.35v-7.772C213.41,74.565,214.179,73.797,215.715,73.797z
			 M217.884,61.325h7.23c1.807,0,2.711,0.903,2.711,2.711v5.242c0,1.777-0.904,2.666-2.711,2.666h-7.23
			c-1.778,0-2.666-0.889-2.666-2.666v-5.242C215.218,62.229,216.105,61.325,217.884,61.325z M217.703,82.428
			c0.361,0,0.542-0.181,0.542-0.542V78.09c0-0.331-0.181-0.497-0.542-0.497h-0.678c-0.361,0-0.543,0.166-0.543,0.497v3.796
			c0,0.361,0.182,0.542,0.543,0.542H217.703z M222.81,68.329c0.451,0,0.678-0.226,0.678-0.678v-1.988
			c0-0.512-0.227-0.769-0.678-0.769h-2.531c-0.513,0-0.768,0.257-0.768,0.769v1.988c0,0.452,0.255,0.678,0.768,0.678H222.81z
			 M224.798,73.797h3.253c1.566,0,2.351,0.769,2.351,2.305v7.772c0,1.566-0.784,2.35-2.351,2.35h-3.253
			c-1.567,0-2.351-0.783-2.351-2.35v-7.772C222.447,74.565,223.23,73.797,224.798,73.797z M226.786,82.428
			c0.331,0,0.497-0.181,0.497-0.542V78.09c0-0.331-0.166-0.497-0.497-0.497h-0.724c-0.392,0-0.587,0.166-0.587,0.497v3.796
			c0,0.361,0.195,0.542,0.587,0.542H226.786z"/>
		<path fill="none" stroke="#40220F" stroke-width="4" stroke-miterlimit="10" d="M290.556,54.772c2.139,0,3.209,1.039,3.209,3.118
			v7.411c0,2.53-1.13,3.796-3.39,3.796h-25.712c0,7.833-0.468,13.437-1.4,16.81c-0.482,3.103-1.341,5.497-2.576,7.185
			c-0.513,0.874-1.341,1.311-2.485,1.311c-1.326,0-2.185-0.256-2.576-0.768c-0.603-0.393-0.903-1.055-0.903-1.988
			c0-0.633,0.136-1.281,0.406-1.943c1.085-2.38,1.943-5.347,2.576-8.902c0.542-3.373,0.813-7.35,0.813-11.93v-10.8
			c0-2.199,1.325-3.299,3.977-3.299H290.556z M264.663,63.855h22.097c0.572,0,0.859-0.256,0.859-0.769v-2.35
			c0-0.452-0.166-0.678-0.497-0.678h-21.871c-0.393,0-0.588,0.226-0.588,0.678V63.855z M289.788,72.125
			c0.903,0,1.642,0.392,2.214,1.175c0.481,0.361,0.724,1.175,0.724,2.44c0,0.874-0.438,1.597-1.311,2.169
			c-2.742,1.055-5.83,1.974-9.264,2.756c-2.651,0.604-5.287,1.115-7.908,1.537v3.299c0,1.958,0.979,2.937,2.938,2.937h9.941
			c0.602,0,1.023-0.241,1.265-0.723c0.331-0.692,0.558-1.656,0.678-2.892c0.331-0.874,1.235-1.356,2.712-1.446
			c0.994,0.03,1.837,0.286,2.53,0.768c0.572,0.482,0.873,1.176,0.904,2.079c0,2.169-0.468,3.946-1.401,5.332
			c-0.874,1.506-2.621,2.396-5.242,2.666h-14.144c-2.32,0-4.021-0.558-5.106-1.672c-0.934-0.874-1.4-2.38-1.4-4.519V73.436
			c0-0.813,0.255-1.537,0.768-2.169c0.543-0.513,1.325-0.769,2.35-0.769c0.904,0,1.673,0.256,2.305,0.769
			c0.603,0.481,0.904,1.205,0.904,2.169v2.802c4.127-0.844,8.54-2.049,13.24-3.615C288.267,72.291,289.034,72.125,289.788,72.125z"
			/>
	</g>
	<g>
		<path fill="#DE552C" d="M233.95,51.859c0.813,0,1.536,0.241,2.169,0.724c0.633,0.331,0.949,1.009,0.949,2.033
			c-0.091,0.934-0.287,2.004-0.588,3.208h6.688c1.235,0,2.199,0.241,2.893,0.724c0.723,0.632,1.084,1.476,1.084,2.53
			c0,0.572-0.03,1.039-0.09,1.4c-0.542,2.772-1.281,5.272-2.214,7.502c-0.271,0.723-0.663,1.19-1.176,1.4
			c-0.392,0.271-1.039,0.407-1.942,0.407c-0.663,0-1.281-0.286-1.854-0.859c-0.15-0.09-0.256-0.24-0.315-0.451v3.163
			c0,1.988,0.391,3.992,1.175,6.01c0.933,2.26,2.726,4.881,5.377,7.863c0.692,0.542,1.039,1.43,1.039,2.666
			c0,0.933-0.347,1.656-1.039,2.169c-0.753,0.633-1.611,0.948-2.575,0.948c-0.332-0.061-0.604-0.135-0.813-0.226
			c-0.242-0.09-0.468-0.256-0.678-0.497c-1.115-1.055-2.728-3.555-4.836-7.501c-0.181-0.331-0.347-0.497-0.497-0.497
			c-0.12,0-0.226,0.136-0.316,0.406c-1.416,2.952-3.238,5.588-5.468,7.908c-0.211,0.271-0.647,0.406-1.31,0.406
			c-0.994-0.061-1.808-0.481-2.44-1.265c-0.091-0.151-0.166-0.271-0.227-0.361c-0.241,0.09-0.497,0.135-0.768,0.135h-16.042
			c-2.893,0-4.338-1.431-4.338-4.292V57.463c-0.121-0.091-0.227-0.165-0.316-0.226c-0.423-0.331-0.633-0.979-0.633-1.943
			c0-0.964,0.21-1.627,0.633-1.988c0.391-0.331,1.039-0.497,1.942-0.497h19.115c0.934,0,1.597,0.181,1.988,0.542
			c0.392,0.302,0.588,0.949,0.588,1.943c0,0.783-0.166,1.371-0.497,1.763c-0.452,0.512-1.146,0.768-2.079,0.768h-15.364v28.063
			c0,0.692,0.361,1.039,1.085,1.039h13.918c0.692,0,1.175,0.241,1.446,0.723c2.259-2.5,3.825-4.79,4.699-6.868
			c0.964-2.26,1.446-4.504,1.446-6.733v-4.835c0-0.903,0.271-1.582,0.813-2.033c0.481-0.422,1.189-0.633,2.123-0.633
			c0.964,0,1.688,0.181,2.169,0.542c0.332,0.302,0.543,0.769,0.633,1.401c0.061-0.15,0.105-0.286,0.136-0.407
			c1.023-2.711,1.536-4.263,1.536-4.654c0-0.24-0.166-0.361-0.497-0.361h-5.693c-0.935,2.953-1.823,5.317-2.666,7.095
			c-0.302,0.813-1.146,1.22-2.53,1.22c-0.633,0-1.281-0.301-1.943-0.903c-0.482-0.331-0.723-0.934-0.723-1.808
			c0-0.753,0.226-1.611,0.678-2.576c1.476-3.555,2.74-7.757,3.796-12.607C231.901,52.401,232.685,51.859,233.95,51.859z
			 M214.429,72.511h3.299c1.536,0,2.305,0.769,2.305,2.305v7.772c0,1.566-0.769,2.35-2.305,2.35h-3.299
			c-1.536,0-2.305-0.783-2.305-2.35v-7.772C212.124,73.279,212.893,72.511,214.429,72.511z M216.598,60.039h7.23
			c1.807,0,2.711,0.903,2.711,2.711v5.242c0,1.777-0.904,2.666-2.711,2.666h-7.23c-1.778,0-2.666-0.889-2.666-2.666V62.75
			C213.932,60.942,214.819,60.039,216.598,60.039z M216.417,81.142c0.361,0,0.542-0.181,0.542-0.542v-3.796
			c0-0.331-0.181-0.497-0.542-0.497h-0.678c-0.361,0-0.543,0.166-0.543,0.497V80.6c0,0.361,0.182,0.542,0.543,0.542H216.417z
			 M221.523,67.043c0.451,0,0.678-0.226,0.678-0.678v-1.988c0-0.512-0.227-0.769-0.678-0.769h-2.531
			c-0.513,0-0.768,0.257-0.768,0.769v1.988c0,0.452,0.255,0.678,0.768,0.678H221.523z M223.512,72.511h3.253
			c1.566,0,2.351,0.769,2.351,2.305v7.772c0,1.566-0.784,2.35-2.351,2.35h-3.253c-1.567,0-2.351-0.783-2.351-2.35v-7.772
			C221.161,73.279,221.944,72.511,223.512,72.511z M225.5,81.142c0.331,0,0.497-0.181,0.497-0.542v-3.796
			c0-0.331-0.166-0.497-0.497-0.497h-0.724c-0.392,0-0.587,0.166-0.587,0.497V80.6c0,0.361,0.195,0.542,0.587,0.542H225.5z"/>
		<path fill="#DE552C" d="M289.27,53.486c2.139,0,3.209,1.039,3.209,3.118v7.411c0,2.53-1.13,3.796-3.39,3.796h-25.712
			c0,7.833-0.468,13.437-1.4,16.81c-0.482,3.103-1.341,5.497-2.576,7.185c-0.513,0.874-1.341,1.311-2.485,1.311
			c-1.326,0-2.185-0.256-2.576-0.768c-0.603-0.393-0.903-1.055-0.903-1.988c0-0.633,0.136-1.281,0.406-1.943
			c1.085-2.38,1.943-5.347,2.576-8.902c0.542-3.373,0.813-7.35,0.813-11.93v-10.8c0-2.199,1.325-3.299,3.977-3.299H289.27z
			 M263.377,62.569h22.097c0.572,0,0.859-0.256,0.859-0.769v-2.35c0-0.452-0.166-0.678-0.497-0.678h-21.871
			c-0.393,0-0.588,0.226-0.588,0.678V62.569z M288.502,70.839c0.903,0,1.642,0.392,2.214,1.175c0.481,0.361,0.724,1.175,0.724,2.44
			c0,0.874-0.438,1.597-1.311,2.169c-2.742,1.055-5.83,1.974-9.264,2.756c-2.651,0.604-5.287,1.115-7.908,1.537v3.299
			c0,1.958,0.979,2.937,2.938,2.937h9.941c0.602,0,1.023-0.241,1.265-0.723c0.331-0.692,0.558-1.656,0.678-2.892
			c0.331-0.874,1.235-1.356,2.712-1.446c0.994,0.03,1.837,0.286,2.53,0.768c0.572,0.482,0.873,1.176,0.904,2.079
			c0,2.169-0.468,3.946-1.401,5.332c-0.874,1.506-2.621,2.396-5.242,2.666h-14.144c-2.32,0-4.021-0.558-5.106-1.672
			c-0.934-0.874-1.4-2.38-1.4-4.519V72.149c0-0.813,0.255-1.537,0.768-2.169c0.543-0.513,1.325-0.769,2.35-0.769
			c0.904,0,1.673,0.256,2.305,0.769c0.603,0.481,0.904,1.205,0.904,2.169v2.802c4.127-0.844,8.54-2.049,13.24-3.615
			C286.98,71.005,287.748,70.839,288.502,70.839z"/>
	</g>
</g>
<g>
	<g>
		<path fill="#F39800" stroke="#40220F" stroke-width="5" stroke-miterlimit="10" d="M53.367,66.52
			c1.604-0.064,2.246,1.026,2.246,2.567c0,1.989-0.963,2.76-2.375,2.823c-12.194,0.706-29.137,1.155-42.229,1.477
			c-1.604,0.063-2.439-0.771-2.439-2.76c0-1.861,0.706-2.824,2.503-2.888c5.006-0.193,10.525-0.321,16.109-0.514
			c-0.128-1.99-0.192-4.107-0.192-5.776c-0.064-2.311,0.642-3.145,3.209-3.273c2.695-0.128,3.594,0.706,3.722,3.017
			c0.064,1.54,0.192,3.787,0.257,5.841C41.108,66.84,47.847,66.712,53.367,66.52z M14.218,62.732
			c-1.541,0.835-3.017,0.706-4.107-0.642c-1.027-1.283-1.155-2.566,0-3.401c4.877-3.466,11.295-7.316,15.788-10.589
			c-0.064-3.209-0.256-6.739-0.321-9.499c-0.064-1.989,0.642-3.08,3.401-3.209c3.081-0.192,3.915,0.642,3.915,2.824
			c0.064,3.209,0.064,5.712,0,9.435c5.583,2.631,15.467,6.674,20.088,8.792c1.155,0.514,1.54,1.861,0.578,3.594
			c-1.027,1.861-2.567,1.99-4.043,1.477c-4.171-1.412-14.248-6.097-19.51-8.344C25.513,56.315,18.518,60.423,14.218,62.732z
			 M18.903,92.319c-2.054,0-3.273-1.604-3.466-3.723c-0.321-3.915-0.449-7.316-0.449-9.69c0-1.926,0.706-2.503,3.209-2.632
			c2.503-0.128,3.658,0.449,3.722,2.375c0.064,2.823,0.064,4.813,0.128,7.188c0,0.449,0.192,0.771,0.642,0.771
			c6.546-0.129,18.676-0.706,25.158-0.706c1.733,0,2.439,0.706,2.439,2.695c0,1.797-1.22,2.567-2.375,2.632
			C39.44,91.87,26.861,92.255,18.903,92.319z"/>
		<path fill="#F39800" stroke="#40220F" stroke-width="5" stroke-miterlimit="10" d="M85.967,38.024
			c0-1.926,1.091-2.695,3.466-2.695s3.273,0.834,3.273,2.503c0,8.021-0.385,20.216-0.642,28.559
			C92,68.188,91.037,68.83,89.24,68.958c-5.583,0.321-18.611,0.898-21.949,0.898c-3.017,0-4.813-1.348-5.006-4.877
			c-0.321-6.354-0.834-17.842-1.091-26.313c-0.064-1.732,0.771-2.76,3.273-2.824c2.759-0.063,3.401,0.771,3.465,2.503
			c0.128,3.273,0.193,6.675,0.321,10.012c4.878-0.32,12.708-0.898,17.649-1.283C85.903,44.313,85.903,41.554,85.967,38.024z
			 M68.446,54.197c0.128,3.594,0.321,6.995,0.449,9.947c2.375,0,13.221-0.513,15.66-0.642c0.642-0.064,1.219-0.32,1.219-1.22
			c0.064-3.594,0.064-6.546,0.128-9.37C81.025,53.299,72.938,53.876,68.446,54.197z M78.073,92.319
			c-2.054,0-3.337-1.604-3.465-3.723c-0.321-5.198-0.449-6.738-0.449-11.681c0-1.925,0.706-2.503,3.209-2.631
			c2.503-0.129,3.658,0.449,3.722,2.374c0.064,2.824,0.064,6.804,0.128,9.178c0,0.449,0.192,0.771,0.642,0.771
			c6.546-0.129,17.649-0.706,24.131-0.706c1.732,0,2.438,0.706,2.438,2.695c0,1.797-1.219,2.567-2.375,2.632
			C97.583,91.87,86.031,92.255,78.073,92.319z M104.45,75.376c-1.861-0.064-2.952-0.577-3.016-3.145
			c-0.128-3.979,0.064-22.463,0.192-32.025c0-2.311,0.898-3.209,3.466-3.209c2.31,0,3.401,1.091,3.337,3.401
			c-0.128,8.215-0.192,27.404-0.706,32.025C107.467,74.862,106.247,75.44,104.45,75.376z"/>
	</g>
	<g>
		<g>
			<path fill="#DE552C" d="M53.161,66.314c1.604-0.064,2.246,1.026,2.246,2.567c0,1.989-0.963,2.76-2.375,2.823
				c-12.194,0.706-29.137,1.155-42.229,1.477c-1.604,0.063-2.439-0.771-2.439-2.76c0-1.861,0.706-2.824,2.503-2.888
				c5.006-0.193,10.525-0.321,16.109-0.514c-0.128-1.99-0.192-4.107-0.192-5.776c-0.064-2.311,0.642-3.145,3.209-3.273
				c2.695-0.128,3.594,0.706,3.722,3.017c0.064,1.54,0.192,3.787,0.257,5.841C40.902,66.635,47.641,66.507,53.161,66.314z
				 M14.012,62.527c-1.541,0.835-3.017,0.706-4.107-0.642c-1.027-1.283-1.155-2.566,0-3.401c4.877-3.466,11.295-7.316,15.788-10.589
				c-0.064-3.209-0.256-6.739-0.321-9.499c-0.064-1.989,0.642-3.08,3.401-3.209c3.081-0.192,3.915,0.642,3.915,2.824
				c0.064,3.209,0.064,5.712,0,9.435c5.583,2.631,15.467,6.674,20.088,8.792c1.155,0.514,1.54,1.861,0.578,3.594
				c-1.027,1.861-2.567,1.99-4.043,1.477c-4.171-1.412-14.248-6.097-19.51-8.344C25.307,56.11,18.312,60.218,14.012,62.527z
				 M18.697,92.114c-2.054,0-3.273-1.604-3.466-3.723c-0.321-3.915-0.449-7.316-0.449-9.69c0-1.926,0.706-2.503,3.209-2.632
				c2.503-0.128,3.658,0.449,3.722,2.375c0.064,2.823,0.064,4.813,0.128,7.188c0,0.449,0.192,0.771,0.642,0.771
				c6.546-0.129,18.676-0.706,25.158-0.706c1.733,0,2.439,0.706,2.439,2.695c0,1.797-1.22,2.567-2.375,2.632
				C39.234,91.665,26.655,92.05,18.697,92.114z"/>
			<path fill="#DE552C" d="M85.761,37.819c0-1.926,1.091-2.695,3.466-2.695s3.273,0.834,3.273,2.503
				c0,8.021-0.385,20.216-0.642,28.559c-0.064,1.798-1.027,2.439-2.824,2.567c-5.583,0.321-18.611,0.898-21.949,0.898
				c-3.017,0-4.813-1.348-5.006-4.877c-0.321-6.354-0.834-17.842-1.091-26.313c-0.064-1.732,0.771-2.76,3.273-2.824
				c2.759-0.063,3.401,0.771,3.465,2.503c0.128,3.273,0.193,6.675,0.321,10.012c4.878-0.32,12.708-0.898,17.649-1.283
				C85.697,44.108,85.697,41.349,85.761,37.819z M68.24,53.992c0.128,3.594,0.321,6.995,0.449,9.947
				c2.375,0,13.221-0.513,15.66-0.642c0.642-0.064,1.219-0.32,1.219-1.22c0.064-3.594,0.064-6.546,0.128-9.37
				C80.819,53.094,72.732,53.671,68.24,53.992z M77.867,92.114c-2.054,0-3.337-1.604-3.465-3.723
				c-0.321-5.198-0.449-6.738-0.449-11.681c0-1.925,0.706-2.503,3.209-2.631c2.503-0.129,3.658,0.449,3.722,2.374
				c0.064,2.824,0.064,6.804,0.128,9.178c0,0.449,0.192,0.771,0.642,0.771c6.546-0.129,17.649-0.706,24.131-0.706
				c1.732,0,2.438,0.706,2.438,2.695c0,1.797-1.219,2.567-2.375,2.632C97.377,91.665,85.825,92.05,77.867,92.114z M104.244,75.171
				c-1.861-0.064-2.952-0.577-3.016-3.145c-0.128-3.979,0.064-22.463,0.192-32.025c0-2.311,0.898-3.209,3.466-3.209
				c2.31,0,3.401,1.091,3.337,3.401c-0.128,8.215-0.192,27.404-0.706,32.025C107.261,74.657,106.041,75.235,104.244,75.171z"/>
		</g>
	</g>
</g>
</svg>
